<?xml version="1.0" encoding="utf-8"?>
<!-- Generator: Adobe Illustrator 26.0.1, SVG Export Plug-In . SVG Version: 6.00 Build 0)  -->
<svg version="1.1" id="Lager_1" xmlns="http://www.w3.org/2000/svg" xmlns:xlink="http://www.w3.org/1999/xlink" x="0px" y="0px"
	 viewBox="0 0 191 85" style="enable-background:new 0 0 191 85;" xml:space="preserve">
<style type="text/css">
	.st0{fill:none;}
	.st1{fill:#00BE5F;}
	.st2{fill:#2819FF;}
	.st3{fill:#23C3FF;}
</style>
<g>
	<path class="st0" d="M172.54,22.62c1.65,0,3-1.35,3-3s-1.35-3-3-3s-3,1.35-3,3S170.89,22.62,172.54,22.62z"/>
	<path class="st0" d="M30.44,40.66c-1.7,0-3.35,0.4-4.85,1.15c-0.07,0.04-0.15,0.07-0.22,0.11c-0.14,0.07-0.27,0.16-0.4,0.24
		c-0.19,0.11-0.38,0.22-0.57,0.34c-0.02,0.01-0.03,0.03-0.05,0.04c-2.9,1.98-4.81,5.32-4.81,9.09c0,2.39,0.78,4.6,2.08,6.41
		c0.19,0.23,0.38,0.46,0.59,0.68l-0.04,0.03c2.02,2.37,5.02,3.88,8.37,3.88c6.07,0,11-4.93,11-11s-4.93-11-11-11
		c-0.01,0-0.02,0-0.03,0l0,0.03C30.49,40.66,30.47,40.66,30.44,40.66z"/>
	<rect x="60.54" y="13.62" class="st1" width="13" height="17"/>
	<path class="st2" d="M137.17,29.87c-6.55,0-12.45,2.82-16.5,7.28c3.11,3.43,5.14,7.83,5.54,12.67c0.89-5.07,5.46-8.95,10.96-8.95
		c6.13,0,11.12,4.82,11.12,10.75h0.05v0h0.2h0.39v0v0h0.01v0h9.61v0h0.72v0h0.03C159.29,39.63,149.36,29.87,137.17,29.87z"/>
	<path class="st1" d="M41.54,32.57c6.57,3.8,11,10.91,11,19.05v-22h-11V32.57z"/>
	<path class="st1" d="M41.54,70.67v1.95h11v-21C52.54,59.76,48.11,66.87,41.54,70.67z"/>
	<path class="st3" d="M82.09,46.59l0.15-0.3c0.24-1.04,0.63-2.19,1.16-3.36c0.95-2.08,2.15-3.78,3.26-4.76
		c1.63-2.08,3.62-3.86,5.88-5.23v-3.32h-11v20l0.28-2L82.09,46.59z"/>
	<rect x="166.54" y="30.62" class="st1" width="12" height="8"/>
	<rect x="166.54" y="55.62" class="st2" width="12" height="17"/>
	<rect x="166.54" y="38.62" class="st3" width="12" height="17"/>
	<rect x="60.54" y="47.62" class="st2" width="13" height="25"/>
	<rect x="60.54" y="30.62" class="st3" width="13" height="17"/>
	<path class="st3" d="M14.25,36.84c0.04-0.04,0.07-0.08,0.11-0.11C14.32,36.76,14.28,36.8,14.25,36.84z"/>
	<path class="st3" d="M18.66,33.11c0.55-0.35,1.1-0.68,1.67-0.98C19.76,32.44,19.2,32.76,18.66,33.11z"/>
	<path class="st3" d="M15.55,35.52c0.36-0.33,0.73-0.66,1.1-0.96C16.28,34.87,15.91,35.19,15.55,35.52z"/>
	<path class="st3" d="M24.35,42.53c-0.54,0.36-1.05,0.77-1.53,1.22c-2.1,2.02-3.31,4.7-3.41,7.56c-0.08,2.49,0.69,4.84,2.2,6.72
		c-1.3-1.81-2.08-4.02-2.08-6.41C19.54,47.85,21.45,44.52,24.35,42.53z"/>
	<path class="st3" d="M25.37,41.92c0.07-0.04,0.15-0.07,0.22-0.11C25.52,41.85,25.45,41.88,25.37,41.92z"/>
	<path class="st3" d="M24.4,42.5c0.18-0.12,0.38-0.23,0.57-0.34C24.78,42.26,24.59,42.37,24.4,42.5z"/>
	<path class="st3" d="M17.03,34.26c0.46-0.36,0.93-0.7,1.41-1.02C17.96,33.57,17.49,33.91,17.03,34.26z"/>
	<path class="st3" d="M41.54,32.57c-3.24-1.87-6.99-2.95-11-2.95c-3.67,0-7.12,0.9-10.16,2.49c3.09-1.6,6.52-2.45,10.06-2.45
		c0.05,0,0.09,0,0.14,0l-0.07,10.97c0.01,0,0.02,0,0.03,0c6.07,0,11,4.93,11,11s-4.93,11-11,11c-3.35,0-6.35-1.51-8.37-3.88
		l-7.9,7.59c-0.79-0.83-1.49-1.72-2.13-2.64c3.93,5.98,10.7,9.93,18.39,9.93c4.01,0,7.76-1.08,11-2.95c6.57-3.8,11-10.91,11-19.05
		S48.11,36.38,41.54,32.57z"/>
	<path class="st2" d="M22.17,58.75l0.04-0.03c-0.21-0.22-0.4-0.45-0.59-0.68c-1.51-1.88-2.29-4.23-2.2-6.72
		c0.1-2.85,1.31-5.54,3.41-7.56c0.48-0.46,0.99-0.86,1.53-1.22c0.02-0.01,0.03-0.03,0.05-0.04c0.18-0.12,0.38-0.23,0.57-0.34
		c0.13-0.08,0.27-0.16,0.4-0.24c0.07-0.04,0.15-0.07,0.22-0.11c1.5-0.75,3.15-1.15,4.85-1.15c0.02,0,0.05,0,0.07,0l0-0.03
		l0.07-10.97c-0.05,0-0.09,0-0.14,0c-3.54,0-6.97,0.85-10.06,2.45c-0.02,0.01-0.03,0.02-0.05,0.03c-0.57,0.3-1.13,0.63-1.67,0.98
		c-0.07,0.04-0.14,0.09-0.21,0.13c-0.48,0.32-0.95,0.66-1.41,1.02c-0.13,0.1-0.25,0.2-0.38,0.3c-0.38,0.31-0.74,0.63-1.1,0.96
		c-0.11,0.1-0.23,0.19-0.34,0.3c-0.3,0.29-0.57,0.6-0.85,0.9c-0.04,0.04-0.07,0.08-0.11,0.11c-3.58,3.88-5.65,8.83-5.83,14.1
		c-0.16,4.63,1.16,9.05,3.73,12.75c0.64,0.92,1.33,1.82,2.13,2.64L22.17,58.75z"/>
	<path class="st3" d="M104.17,29.87c-0.21,0-0.42,0.01-0.62,0.02v10.98c-5.79,0-10.49,4.82-10.5,10.74
		c0-5.92,4.99-10.74,11.12-10.74c4.73,0,8.77,2.87,10.38,6.9v24.76c0,0.05,0.04,0.09,0.09,0.09h11.83c0.05,0,0.08-0.04,0.08-0.09
		V53.5c0-0.73-0.09-1.44-0.26-2.12c-0.01-0.52-0.03-1.04-0.08-1.56c-0.41-4.85-2.43-9.24-5.54-12.67
		C116.61,32.69,110.72,29.87,104.17,29.87z"/>
	<path class="st1" d="M172.54,26.62c3.86,0,7-3.14,7-7s-3.14-7-7-7s-7,3.14-7,7S168.68,26.62,172.54,26.62z"/>
	<path class="st1" d="M103.54,40.87V29.89v-0.02c-4.02,0-7.78,1.12-11,3.07c-2.26,1.37-4.25,3.15-5.88,5.23
		c-1.11,0.98-2.32,2.68-3.26,4.76c-0.53,1.17-0.92,2.31-1.16,3.36l-0.15,0.3l-0.28,1.03l-0.28,2v2h0.5c0,0,0,0,0,0h10.5v0h0.5
		c0,0,0-0.01,0-0.01C93.05,45.69,97.75,40.87,103.54,40.87z"/>
	<polygon class="st3" points="92.54,51.62 82.04,51.62 82.04,51.62 81.54,51.62 81.54,72.62 92.54,72.62 93.04,72.62 93.04,51.62 
		93.04,51.62 92.54,51.62 	"/>
	<polygon class="st1" points="158.54,51.62 158.54,51.62 148.93,51.62 148.93,51.62 148.93,51.62 148.93,51.62 148.93,51.62 
		148.54,51.62 148.34,51.62 148.34,51.62 148.54,58.64 148.54,65.36 148.34,72.57 148.34,72.62 148.54,72.62 148.63,72.62 
		158.54,72.62 159.26,72.62 159.26,51.62 159.26,51.62 	"/>
</g>
</svg>
