<?xml version="1.0" encoding="utf-8"?>
<!-- Generator: Adobe Illustrator 26.0.1, SVG Export Plug-In . SVG Version: 6.00 Build 0)  -->
<svg version="1.1" id="Lager_1" xmlns="http://www.w3.org/2000/svg" xmlns:xlink="http://www.w3.org/1999/xlink" x="0px" y="0px"
	 viewBox="0 0 131 157" style="enable-background:new 0 0 131 157;" xml:space="preserve">
<style type="text/css">
	.st0{fill:#23C3FF;}
	.st1{fill:#00F0AF;}
</style>
<g>
	<g>
		
			<rect x="24.9" y="44.12" transform="matrix(0.7071 0.7071 -0.7071 0.7071 62.2188 -32.9656)" class="st0" width="92" height="29"/>
		<path d="M93.18,102.11L27.42,36.35l21.21-21.21l65.76,65.76L93.18,102.11z M28.83,36.35l64.35,64.35l19.8-19.8L48.63,16.55
			L28.83,36.35z"/>
	</g>
	<g>
		<path d="M93.18,101.76L27.77,36.35l20.86-20.86l65.41,65.41L93.18,101.76z M28.48,36.35l64.7,64.7l20.15-20.15l-64.7-64.7
			L28.48,36.35z"/>
	</g>
	<g>
		
			<rect x="24.9" y="89.12" transform="matrix(0.7071 -0.7071 0.7071 0.7071 -52.5049 80.4858)" class="st1" width="92" height="29"/>
		<path d="M48.63,147.11L27.42,125.9l65.76-65.76l21.21,21.21L48.63,147.11z M28.83,125.9l19.8,19.8l64.35-64.35l-19.8-19.8
			L28.83,125.9z"/>
	</g>
	<g>
		<path d="M48.63,146.76L27.77,125.9l65.41-65.41l20.86,20.86L48.63,146.76z M28.48,125.9l20.15,20.15l64.7-64.7L93.18,61.2
			L28.48,125.9z"/>
	</g>
</g>
</svg>
