<?xml version="1.0" encoding="utf-8"?>
<!-- Generator: Adobe Illustrator 26.0.1, SVG Export Plug-In . SVG Version: 6.00 Build 0)  -->
<svg version="1.1" id="Lager_1" xmlns="http://www.w3.org/2000/svg" xmlns:xlink="http://www.w3.org/1999/xlink" x="0px" y="0px"
	 viewBox="0 0 286 301" style="enable-background:new 0 0 286 301;" xml:space="preserve">
<style type="text/css">
	.st0{fill:#00F0AF;}
	.st1{opacity:0.55;enable-background:new    ;}
	.st2{fill:#23C3FF;}
	.st3{opacity:0.8;enable-background:new    ;}
	.st4{fill:#00BE5F;}
</style>
<g>
	<ellipse class="st0" cx="143.56" cy="149.21" rx="131.44" ry="131.79"/>
	<g>
		<g class="st1">
			<path class="st2" d="M189.5,217.43h-67.8v-28.71l45.32,0.24v-72.55h70.21v101.02h-18.78l-0.31,18.36L189.5,217.43z
				 M200.25,157.67c-4.72,0-8.56,3.5-8.57,7.8c0,2.13,0.91,4.13,2.58,5.61c1.6,1.43,3.72,2.22,5.96,2.22h0.02
				c4.72,0,8.56-3.51,8.56-7.82C208.79,161.19,204.96,157.68,200.25,157.67z M179.5,157.67c-4.72,0-8.56,3.51-8.56,7.82
				c0,4.31,3.84,7.82,8.56,7.82c4.72,0,8.56-3.51,8.56-7.82C188.06,161.18,184.22,157.67,179.5,157.67z"/>
			<path d="M235.36,118.29v97.26h-15.07h-3.69l-0.06,3.7l-0.22,13.15l-25.35-16.25l-0.92-0.59h-1.1h-65.38v-24.94l41.56,0.22
				l3.77,0.02v-3.78v-68.78H235.36 M189.86,164.41c-0.58-4.84-5.01-8.62-10.37-8.62c-5.75,0-10.43,4.35-10.43,9.7
				c0,5.35,4.68,9.7,10.43,9.7c5.36,0,9.79-3.78,10.37-8.62c0.27,2.24,1.38,4.35,3.14,5.92c1.92,1.72,4.45,2.68,7.12,2.7v0l0.1,0h0
				c2.7,0,5.26-0.95,7.21-2.69c2.05-1.82,3.22-4.38,3.22-7.01c0-5.34-4.67-9.69-10.43-9.7
				C194.88,155.79,190.45,159.57,189.86,164.41 M239.11,114.53h-73.96v72.54l-45.32-0.24v32.48h69.13l31,19.87l0.34-19.87h18.82
				V114.53L239.11,114.53z M200.23,171.43c-0.02,0-0.04,0-0.06,0h0.05c-3.69-0.01-6.68-2.67-6.67-5.95c0.01-3.28,3-5.93,6.68-5.93
				c0,0,0.01,0,0.01,0c3.69,0.01,6.67,2.66,6.67,5.94C206.91,168.77,203.92,171.43,200.23,171.43L200.23,171.43z M179.5,171.43
				c-3.69,0-6.68-2.66-6.68-5.94c0-3.28,2.99-5.94,6.68-5.94s6.68,2.66,6.68,5.94C186.18,168.77,183.19,171.43,179.5,171.43
				L179.5,171.43z"/>
		</g>
		<g class="st3">
			<path class="st4" d="M66.71,185.19H47.73V84.17h115.55v101.02H95.67l-28.65,18.36L66.71,185.19z M96.19,154.53
				c-0.1,2.09,0.82,4.08,2.54,5.47c1.52,1.19,3.43,1.83,5.4,1.83l0.11,0c1.99,0,3.89-0.66,5.36-1.86c1.69-1.38,2.6-3.36,2.5-5.45
				c0-0.04,0-0.08,0-0.13c-0.05-3.33-2.6-6.12-5.99-6.87c2.3-0.64,3.82-2.33,4.36-4.9c0.32-1.3,0.54-2.06,0.62-2.32l0.03-0.11
				c0.08-0.32,0.19-0.63,0.32-0.93c0.27-0.39,0.58-0.76,0.94-1.09l0.04-0.04c0.64-0.64,1.32-1.25,2.04-1.81
				c3.86-3.08,6.03-4.86,6.97-5.65l0.05-0.04c1.47-1.3,2.7-2.79,3.67-4.42l0.02-0.04c1.09-1.95,1.62-4.13,1.53-6.31
				c0-2.95-0.97-5.79-2.8-8.23c-1.94-2.55-4.6-4.57-7.72-5.84c-3.34-1.37-6.91-2.07-10.59-2.07c-0.16,0-0.32,0-0.48,0
				c-0.17,0-0.34,0-0.51,0c-3.92,0-7.84,0.86-11.31,2.48c-3.19,1.45-5.93,3.65-7.92,6.34c-1.76,2.35-2.74,5.11-2.83,7.97l0,0.05
				l0,0.05c0.05,1.69,0.84,3.3,2.19,4.44c1.31,1.2,3.12,1.88,4.97,1.88c0.06,0,0.11,0,0.17,0c3.38-0.01,5.84-1.91,6.94-5.36
				c0.63-1.9,1.7-3.64,3.19-5.15c0.95-0.93,2.77-1.43,5.22-1.43l0.07,0c0.1,0,0.2-0.01,0.29-0.01c1.73,0,3.39,0.56,4.66,1.57
				c1.1,0.87,1.72,2.08,1.7,3.34l0,0.05c0.01,0.59-0.17,1.19-0.5,1.72c-0.44,0.71-0.97,1.34-1.6,1.9l-0.04,0.04
				c-0.72,0.68-2.05,1.71-3.59,2.91c-1.67,1.28-3.3,2.65-4.82,4.09c-2.95,2.79-4.57,6.58-4.48,10.43c-0.12,1.86,0.6,3.69,2.01,5.03
				l0.04,0.04l0.04,0.03c0.82,0.7,1.8,1.2,2.87,1.46c-1.22,0.32-2.34,0.91-3.27,1.73C97.06,150.66,96.17,152.56,96.19,154.53z"/>
			<path d="M161.4,86.05v97.26H96.22h-1.1l-0.92,0.59l-25.36,16.25l-0.22-13.15l-0.06-3.7h-3.69H49.6V86.05H161.4 M92.54,104.5
				c-3.48,1.59-6.47,3.99-8.64,6.93c-2,2.68-3.11,5.8-3.2,9.04l0,0.1l0,0.1c0.06,2.21,1.09,4.32,2.83,5.8
				c1.67,1.51,3.87,2.35,6.21,2.35c0.06,0,0.13,0,0.19,0c4.18-0.02,7.34-2.44,8.7-6.64c0.54-1.62,1.45-3.09,2.71-4.39
				c0.31-0.29,1.29-0.91,3.92-0.91h0.07l0.07,0c0.08,0,0.15,0,0.22,0c1.31,0,2.56,0.41,3.51,1.17c0.63,0.5,0.99,1.16,0.98,1.83
				l0,0.05l0,0.05c0,0.23-0.07,0.47-0.21,0.69l-0.01,0.02l-0.01,0.02c-0.33,0.54-0.75,1.03-1.25,1.47l-0.04,0.04l-0.04,0.04
				c-0.64,0.61-1.94,1.61-3.43,2.77c-1.73,1.32-3.41,2.74-4.98,4.22c-3.31,3.13-5.15,7.41-5.07,11.76c-0.13,2.39,0.8,4.72,2.59,6.43
				l0.07,0.07l0.08,0.07c0,0,0,0,0,0c-0.13,0.11-0.27,0.21-0.4,0.33c-1.98,1.69-3.1,4.09-3.09,6.6c-0.1,2.64,1.1,5.24,3.23,6.96
				l0.02,0.02l0.02,0.02c1.82,1.43,4.14,2.21,6.53,2.21l0.09,0l0.04,0c2.4,0,4.72-0.81,6.52-2.28c2.15-1.76,3.31-4.28,3.2-6.95
				c0-0.04,0-0.09,0-0.12c-0.04-2.88-1.55-5.45-3.86-7.08c1.07-1.09,1.82-2.52,2.19-4.23c0.3-1.24,0.51-1.94,0.59-2.19l0.03-0.1
				l0.03-0.11c0.04-0.16,0.09-0.31,0.15-0.46c0.17-0.23,0.36-0.44,0.57-0.64l0.04-0.04l0.04-0.04c0.59-0.59,1.22-1.15,1.89-1.68
				c3.86-3.08,6.04-4.87,6.99-5.66l0.05-0.04l0.05-0.04c1.61-1.43,2.97-3.07,4.04-4.87l0.02-0.04l0.02-0.04
				c1.25-2.24,1.87-4.75,1.77-7.27c-0.01-3.34-1.11-6.56-3.17-9.32l-0.01-0.01l-0.01-0.01c-2.13-2.81-5.07-5.03-8.49-6.43
				c-3.57-1.46-7.37-2.21-11.3-2.21c-0.16,0-0.32,0-0.48,0c-0.17,0-0.34,0-0.52,0C100.44,101.84,96.26,102.76,92.54,104.5
				 M165.15,82.29H45.86v104.78h19.01l0.34,19.87l31.01-19.87h68.93V82.29L165.15,82.29z M89.74,125.07c-1.41,0-2.76-0.51-3.74-1.42
				c-0.96-0.8-1.52-1.91-1.55-3.07c0.07-2.46,0.92-4.86,2.46-6.91c1.8-2.44,4.28-4.43,7.2-5.76c3.25-1.52,6.86-2.31,10.52-2.31
				c0.17,0,0.34,0,0.51,0.01c0.16,0,0.32,0,0.48,0c3.41,0,6.78,0.66,9.88,1.93c2.8,1.14,5.2,2.95,6.93,5.23
				c1.58,2.11,2.43,4.6,2.42,7.14c0.08,1.85-0.37,3.69-1.3,5.35c-0.87,1.46-1.98,2.8-3.3,3.97c-1.33,1.11-3.64,2.98-6.94,5.62
				c-0.78,0.61-1.51,1.27-2.2,1.96c-0.5,0.47-0.93,0.99-1.3,1.54c-0.22,0.45-0.39,0.92-0.5,1.4c-0.14,0.46-0.38,1.29-0.66,2.46
				c-0.52,2.49-2.12,3.73-4.82,3.73c-0.06,0-0.12,0-0.18,0c-1.27,0-2.49-0.44-3.41-1.22c-1.02-0.98-1.54-2.29-1.42-3.63
				c-0.11-3.37,1.28-6.65,3.89-9.11c1.48-1.4,3.05-2.72,4.69-3.97c1.72-1.34,2.97-2.3,3.73-3.03c0.77-0.68,1.42-1.46,1.94-2.3
				c0.53-0.84,0.8-1.78,0.79-2.74c0.03-1.85-0.85-3.62-2.41-4.85c-1.61-1.27-3.68-1.98-5.83-1.98c-0.12,0-0.24,0-0.36,0.01
				c-2.97,0-5.18,0.66-6.55,1.99c-1.68,1.71-2.92,3.72-3.64,5.9c-0.86,2.7-2.59,4.05-5.18,4.05
				C89.84,125.07,89.79,125.07,89.74,125.07L89.74,125.07z M104.13,159.96c-1.55,0-3.06-0.5-4.22-1.42
				c-1.25-1.01-1.93-2.47-1.84-3.97c-0.03-1.44,0.62-2.82,1.79-3.81c1.13-0.99,2.65-1.54,4.23-1.54c0.04,0,0.09,0,0.13,0
				c0.03,0,0.05,0,0.08,0c3.24,0,5.89,2.32,5.93,5.2c0,0.05,0,0.1,0,0.15c0.09,1.49-0.58,2.94-1.81,3.95
				c-1.13,0.93-2.62,1.44-4.15,1.44c-0.01,0-0.03,0-0.04,0C104.19,159.96,104.16,159.96,104.13,159.96L104.13,159.96z"/>
		</g>
	</g>
</g>
</svg>
