<?xml version="1.0" encoding="utf-8"?>
<!-- Generator: Adobe Illustrator 26.0.1, SVG Export Plug-In . SVG Version: 6.00 Build 0)  -->
<svg version="1.1" id="Lager_1" focusable="false" xmlns="http://www.w3.org/2000/svg" xmlns:xlink="http://www.w3.org/1999/xlink"
	 x="0px" y="0px" viewBox="0 0 628 624" style="enable-background:new 0 0 628 624;" xml:space="preserve">
<style type="text/css">
	.st0{fill:#FFFDFD;}
</style>
<g>
	<path class="st0" d="M313.53,566.66c-67.82,0-131.58-26.41-179.53-74.37S59.63,380.58,59.63,312.76s26.41-131.58,74.37-179.53
		s111.71-74.37,179.53-74.37s131.58,26.41,179.53,74.37s74.37,111.71,74.37,179.53s-26.41,131.58-74.37,179.53
		S381.34,566.66,313.53,566.66z"/>
	<path d="M313.53,106.86c55,0,106.7,21.42,145.59,60.31c38.89,38.89,60.31,90.59,60.31,145.59s-21.42,106.7-60.31,145.59
		c-38.89,38.89-90.59,60.31-145.59,60.31s-106.7-21.42-145.59-60.31s-60.31-90.59-60.31-145.59s21.42-106.7,60.31-145.59
		S258.53,106.86,313.53,106.86 M313.53,10.86c-166.73,0-301.9,135.16-301.9,301.9s135.16,301.9,301.9,301.9
		s301.9-135.16,301.9-301.9S480.26,10.86,313.53,10.86L313.53,10.86z"/>
</g>
<path d="M490.52,104.76H136.45c-16.22,0-29.41,13.46-29.41,29.99v356.01c0,16.53,13.18,29.99,29.41,29.99h354.07
	c16.22,0,29.5-13.46,29.5-29.99V134.76C520.01,118.23,506.74,104.76,490.52,104.76z M231.85,461.33h-61.21V262.81h61.3v198.53
	H231.85z M201.25,235.69c-19.63,0-35.49-16.06-35.49-35.75s15.86-35.75,35.49-35.75c19.54,0,35.49,16.06,35.49,35.75
	C236.74,219.72,220.88,235.69,201.25,235.69z M461.29,461.33h-61.21v-96.57c0-23.03-0.46-52.65-31.8-52.65
	c-31.89,0-36.78,25.07-36.78,50.98v98.24h-61.21V262.81h58.72v27.11h0.83c8.2-15.6,28.21-32.04,57.98-32.04
	c61.95,0,73.47,41.14,73.47,94.62V461.33z"/>
</svg>
