<?xml version="1.0" encoding="utf-8"?>
<!-- Generator: Adobe Illustrator 26.0.1, SVG Export Plug-In . SVG Version: 6.00 Build 0)  -->
<svg version="1.1" id="Lager_1" xmlns="http://www.w3.org/2000/svg" xmlns:xlink="http://www.w3.org/1999/xlink" x="0px" y="0px"
	 viewBox="0 0 507 496" style="enable-background:new 0 0 507 496;" xml:space="preserve">
<style type="text/css">
	.st0{fill:#00BE5F;}
	.st1{fill:#2819FF;}
	.st2{fill:#00F0AF;}
</style>
<g>
	<g>
		<g>
			<g>
				<g>
					<g>
						<path class="st0" d="M258.17,341.86c-8.22-21.33-6.7-32.07-3.39-37.96c0.7-1.25,2.55-4.17,4.24-8.7
							c0.55-1.48,2.24-6.2,3.39-17.4c0.45-4.33,0.97-9.38,0.85-15.82c-0.26-13.78-3.08-14.35-3.39-25.31
							c-0.21-7.32-0.53-18.69,6.78-28.47c2.88-3.85,6.31-6.61,11.87-11.07c6.41-5.15,7.72-5.05,14.41-10.28
							c6.8-5.31,11.19-8.75,14.41-14.24c3.52-6,3.96-11.61,4.24-15.82c2.99-44.78,3.11-48.44,0-49.83
							c-6.62-2.96-19.01,8.4-28.83,17.4c-8.34,7.65-13.24,14.5-16.96,19.77c-6.63,9.39-12.34,17.67-13.57,28.47
							c-0.62,5.43-0.07,11.2,0,11.86c0.33,3.34,0.74,7.18,2.54,11.86c1.6,4.17,2.17,3.44,2.54,5.54c0.9,5.04-2.78,6.91-5.09,15.82
							c-0.98,3.76-0.82,5.37-1.7,5.54c-1.94,0.38-5.96-6.89-7.63-14.24c-2.03-8.9,0.99-10.9,0-20.56
							c-0.46-4.52-1.35-13.26-7.63-20.56c-1.19-1.39-2.75-2.92-19.5-11.86c-13.92-7.43-15.42-7.74-16.96-7.12
							c-6.78,2.76-5.3,19.99-2.54,30.05c1.74,6.38,4.05,14.83,11.87,20.56c7.47,5.48,16.96,7.91,16.96,7.91
							c4.4,1.13,6.67,1.05,9.33,3.16c3.06,2.44,2.58,4.54,5.94,11.07c3.48,6.76,4.79,6.05,6.78,11.07
							c1.66,4.19,0.77,4.74,2.54,12.65c1.87,8.33,3.01,8.41,3.39,12.65c0.48,5.26-1.22,5.86-3.39,15.82
							c-2.09,9.61-0.89,10.74-3.39,21.35c-0.57,2.43-1.29,5.46-2.54,9.49c-2.2,7.08-3.6,9.29-4.24,14.24c-0.36,2.77-0.76,5.8,0,8.7
							C242,337.15,255.78,341.19,258.17,341.86z"/>
					</g>
				</g>
				<g>
					<g>
						<path class="st0" d="M260.91,344.28l-3.22-0.9c-4-1.12-17.25-5.53-19.81-15.38c-0.83-3.18-0.41-6.41-0.04-9.26
							c0.44-3.37,1.22-5.56,2.3-8.58c0.58-1.62,1.24-3.46,2-5.91c1.24-3.98,1.95-6.97,2.51-9.38c1.31-5.53,1.58-8.36,1.87-11.36
							c0.25-2.64,0.52-5.37,1.52-9.98c0.9-4.14,1.74-6.73,2.35-8.62c0.87-2.7,1.27-3.94,1.02-6.75c-0.18-1.94-0.51-2.89-1.07-4.45
							c-0.57-1.59-1.34-3.78-2.29-8.01c-0.82-3.67-1.09-5.83-1.28-7.41c-0.23-1.88-0.36-2.91-1.19-5.02
							c-0.93-2.34-1.66-3.27-2.66-4.56c-1.02-1.3-2.28-2.92-4.06-6.38c-1.32-2.57-2.05-4.45-2.64-5.96
							c-0.9-2.31-1.31-3.36-2.86-4.59c-1.64-1.31-3.1-1.61-5.52-2.12c-0.92-0.19-1.96-0.41-3.16-0.72c-0.4-0.1-9.9-2.58-17.56-8.19
							c-8.27-6.07-10.7-14.94-12.47-21.42c-1.94-7.11-5.47-28.24,3.51-31.89c2.37-0.97,4.09-0.49,18.48,7.19
							c17.48,9.33,18.69,10.75,19.98,12.25c6.6,7.68,7.54,16.95,8,21.4c0.47,4.6,0.06,7.57-0.3,10.2
							c-0.41,3.02-0.77,5.62,0.27,10.19c1.25,5.5,3.71,10.35,5.24,12.24c0.02-0.09,0.04-0.18,0.05-0.28
							c0.16-0.82,0.37-1.93,0.73-3.31c1.06-4.1,2.4-6.75,3.47-8.89c1.25-2.48,2-3.98,1.59-6.3c-0.13-0.72-0.23-0.88-0.56-1.39
							c-0.41-0.63-1.03-1.59-1.91-3.87c-1.91-4.97-2.31-9.01-2.64-12.25c-0.11-1.08-0.62-6.74,0-12.18
							c1.29-11.4,7.39-20.03,13.84-29.17c3.4-4.82,8.54-12.11,17.19-20.03c10.81-9.91,23.05-21.13,30.75-17.7
							c4.26,1.9,4.07,4.69,0.96,51.35c-0.27,4-0.67,10.04-4.44,16.48c-3.37,5.75-7.92,9.31-14.81,14.69
							c-3.31,2.59-5.33,3.89-7.28,5.16c-2,1.3-3.9,2.52-7.12,5.11c-5.5,4.42-8.83,7.09-11.59,10.78c-7,9.35-6.68,20.29-6.48,27.53
							c0.14,4.95,0.81,7.71,1.52,10.63c0.85,3.52,1.74,7.17,1.88,14.69c0.12,6.53-0.4,11.56-0.86,16
							c-0.8,7.76-1.97,13.74-3.48,17.77c-1.51,4.04-3.13,6.83-4,8.33c-0.13,0.22-0.24,0.42-0.34,0.58
							c-4.2,7.46-3.03,19.81,3.49,36.69L260.91,344.28z M199.84,150.28c-0.14,0-0.25,0.02-0.34,0.06c-4.93,2-4.79,16.48-1.58,28.21
							c1.74,6.37,3.91,14.3,11.28,19.71c7.1,5.21,16.27,7.6,16.36,7.63c1.12,0.29,2.12,0.5,3,0.68c2.62,0.55,4.69,0.99,6.97,2.8
							c2.23,1.77,2.87,3.42,3.85,5.92c0.56,1.45,1.27,3.25,2.52,5.67c1.64,3.2,2.76,4.62,3.74,5.88c1.08,1.38,2.01,2.57,3.1,5.33
							c0.98,2.46,1.15,3.84,1.38,5.76c0.2,1.6,0.44,3.59,1.23,7.12c0.91,4.05,1.62,6.05,2.19,7.66c0.59,1.66,1.02,2.87,1.23,5.18
							c0.31,3.41-0.24,5.11-1.15,7.93c-0.62,1.93-1.4,4.34-2.27,8.34c-0.97,4.43-1.21,6.96-1.47,9.63
							c-0.29,2.97-0.58,6.03-1.93,11.75c-0.58,2.46-1.3,5.51-2.57,9.59c-0.78,2.5-1.45,4.37-2.04,6.02
							c-1.05,2.95-1.75,4.91-2.15,7.96c-0.35,2.71-0.72,5.51-0.04,8.14c1.68,6.45,9.33,10.24,14.25,12.04
							c-5.89-16.39-6.59-28.23-2.14-36.13c0.1-0.17,0.22-0.38,0.36-0.62c0.83-1.42,2.36-4.07,3.78-7.86
							c1.77-4.73,2.77-11.87,3.3-17.03c0.45-4.35,0.96-9.29,0.84-15.64c-0.13-7.2-0.98-10.68-1.79-14.05
							c-0.75-3.08-1.45-5.98-1.6-11.24c-0.22-7.65-0.55-19.21,7.09-29.42c3-4.02,6.45-6.78,12.16-11.37c3.36-2.7,5.32-3.97,7.4-5.31
							c1.89-1.22,3.84-2.48,7.03-4.98c6.83-5.33,10.95-8.56,14.02-13.78c3.41-5.82,3.77-11.22,4.03-15.16
							c2.55-38.28,3.08-47.36,0.96-48.3c-5.55-2.47-18.4,9.3-26.91,17.1c-8.39,7.69-13.21,14.52-16.73,19.51
							c-6.22,8.81-12.09,17.13-13.3,27.77c-0.6,5.25-0.06,10.92,0,11.55c0.3,3.07,0.68,6.88,2.45,11.48
							c0.77,1.99,1.26,2.75,1.62,3.31c0.48,0.74,0.78,1.27,1,2.5c0.59,3.29-0.5,5.44-1.87,8.16c-1.01,2-2.26,4.49-3.24,8.28
							c-0.33,1.29-0.53,2.31-0.69,3.13c-0.35,1.82-0.63,3.26-2.31,3.59c-4.46,0.86-8.63-11.02-9.64-15.46
							c-1.16-5.09-0.75-8.08-0.32-11.25c0.35-2.58,0.72-5.25,0.29-9.49c-0.46-4.47-1.3-12.78-7.27-19.72
							c-0.94-1.09-2.1-2.45-19.02-11.48C205.09,152.12,201.21,150.28,199.84,150.28z"/>
					</g>
				</g>
			</g>
			<g>
				<g>
					<g>
						<path class="st1" d="M264.53,202.27c-0.07,0-0.14-0.01-0.21-0.02c-0.45-0.11-0.73-0.54-0.61-0.96
							c1.76-6.47,4.06-12.89,6.82-19.09c2.23-5,4.62-9.46,13.61-24.6c4.6-7.74,6.85-11.41,8.34-13.83c1.37-2.24,2.13-3.47,3.52-5.93
							c5.36-9.43,10.19-19.51,14.37-29.96c0.16-0.41,0.65-0.62,1.09-0.46c0.44,0.15,0.66,0.61,0.5,1.02
							c-4.2,10.51-9.07,20.65-14.46,30.15c-1.41,2.48-2.17,3.72-3.55,5.97c-1.49,2.42-3.74,6.08-8.33,13.81
							c-9.5,16-11.5,19.89-13.53,24.44c-2.73,6.13-5,12.48-6.74,18.87C265.26,202.03,264.91,202.27,264.53,202.27z"/>
					</g>
				</g>
			</g>
			<g>
				<g>
					<g>
						<path class="st1" d="M238.67,205.83c-0.29,0-0.58-0.14-0.74-0.4c-2.42-3.95-4.98-7.94-7.61-11.83
							c-3.42-5.07-6.11-8.75-11.85-16.58c-2.4-3.27-3.84-5.21-5.03-6.8c-1.43-1.92-2.46-3.3-4.3-5.86
							c-3.21-4.46-6.35-8.99-9.34-13.47c-0.25-0.37-0.13-0.86,0.27-1.09c0.4-0.23,0.92-0.12,1.17,0.25
							c2.98,4.46,6.11,8.98,9.31,13.42c1.84,2.55,2.86,3.93,4.29,5.84c1.19,1.59,2.63,3.53,5.04,6.81
							c5.35,7.3,8.3,11.32,11.89,16.63c2.64,3.92,5.22,7.92,7.65,11.89c0.23,0.38,0.09,0.86-0.32,1.08
							C238.96,205.8,238.81,205.83,238.67,205.83z"/>
					</g>
				</g>
			</g>
			<g>
				<g>
					<g>
						<path class="st1" d="M265.01,201.69c-0.23,0-0.46-0.09-0.63-0.26c-0.31-0.33-0.28-0.83,0.06-1.12
							c3.4-2.84,7.18-5.28,11.23-7.25c2.06-1,4.31-1.92,6.76-1.81c0.47,0.02,0.83,0.39,0.81,0.82c-0.02,0.44-0.46,0.78-0.88,0.76
							c-2.06-0.08-4.04,0.74-5.9,1.64c-3.93,1.9-7.59,4.27-10.88,7.02C265.41,201.63,265.21,201.69,265.01,201.69z"/>
					</g>
				</g>
			</g>
			<g>
				<g>
					<g>
						<path class="st1" d="M270.38,187.13c-0.13,0-0.27-0.03-0.4-0.09c-0.41-0.21-0.57-0.69-0.35-1.07
							c2.61-4.55,7.87-7.67,13.4-7.94c1.28-0.06,2.56,0.02,3.8,0.09c1.6,0.1,3.11,0.19,4.6,0c2.77-0.35,5.22-1.63,7.82-2.99
							c1.7-0.89,3.46-1.8,5.32-2.45c0.44-0.15,0.93,0.06,1.09,0.47c0.16,0.41-0.06,0.87-0.5,1.02c-1.74,0.6-3.44,1.49-5.09,2.34
							c-2.62,1.37-5.33,2.78-8.42,3.17c-1.66,0.21-3.33,0.11-4.94,0.01c-1.24-0.08-2.42-0.15-3.59-0.09
							c-4.95,0.25-9.65,3.04-11.99,7.11C270.97,186.97,270.68,187.13,270.38,187.13z"/>
					</g>
				</g>
			</g>
			<g>
				<g>
					<g>
						<path class="st1" d="M278.22,170.1c-0.25,0-0.49-0.1-0.66-0.29c-0.3-0.34-0.25-0.84,0.12-1.11c4.21-3.22,8.96-5.68,14.12-7.29
							c0.84-0.26,1.75-0.5,2.73-0.51c0.37,0.01,0.72,0.05,1.06,0.09c0.34,0.04,0.66,0.09,0.98,0.08c0.68-0.02,1.39-0.28,2.07-0.53
							c3.54-1.31,7.94-2.94,10.44-6.1c0.28-0.35,0.81-0.43,1.19-0.17c0.38,0.26,0.46,0.76,0.18,1.11
							c-2.79,3.52-7.44,5.24-11.18,6.63c-0.78,0.29-1.68,0.62-2.66,0.64c-0.44,0.01-0.85-0.04-1.25-0.09
							c-0.3-0.04-0.59-0.07-0.86-0.08c-0.71,0-1.46,0.2-2.16,0.42c-4.97,1.55-9.54,3.91-13.58,7.01
							C278.6,170.04,278.41,170.1,278.22,170.1z"/>
					</g>
				</g>
			</g>
			<g>
				<g>
					<g>
						<path class="st1" d="M289.62,151.93c-0.13,0-0.27-0.03-0.39-0.09c-0.41-0.2-0.57-0.68-0.35-1.07
							c2.5-4.42,7.72-6.65,12.85-8.56c0.99-0.37,1.99-0.74,2.92-1.16c2.9-1.33,5.45-3.31,7.37-5.74c0.28-0.35,0.81-0.43,1.19-0.17
							c0.38,0.26,0.46,0.75,0.18,1.11c-2.08,2.64-4.84,4.79-7.99,6.23c-0.99,0.45-2.01,0.83-3,1.2c-5.07,1.89-9.78,3.9-12.02,7.84
							C290.22,151.78,289.93,151.93,289.62,151.93z"/>
					</g>
				</g>
			</g>
			<g>
				<g>
					<g>
						<path class="st1" d="M301.76,130.25c-0.11,0-0.21-0.02-0.32-0.06c-0.43-0.16-0.65-0.62-0.47-1.03
							c1.06-2.48,3.63-3.68,6.1-4.85c2.27-1.07,4.41-2.08,5.29-3.96c0.19-0.4,0.69-0.59,1.11-0.41c0.43,0.17,0.63,0.64,0.44,1.04
							c-1.11,2.41-3.64,3.59-6.08,4.74c-2.3,1.08-4.47,2.11-5.3,4.03C302.42,130.06,302.1,130.25,301.76,130.25z"/>
					</g>
				</g>
			</g>
			<g>
				<g>
					<g>
						<path class="st1" d="M302.46,125.87c-0.46,0-0.83-0.34-0.85-0.77c-0.13-3.73-1.52-7.33-2.87-10.82
							c-0.16-0.41,0.07-0.86,0.51-1.01c0.44-0.15,0.93,0.06,1.09,0.47c1.4,3.61,2.84,7.34,2.97,11.31c0.02,0.44-0.35,0.8-0.82,0.82
							C302.47,125.87,302.46,125.87,302.46,125.87z"/>
					</g>
				</g>
			</g>
			<g>
				<g>
					<g>
						<path class="st1" d="M294.77,140.91c-0.02,0-0.04,0-0.06,0c-0.47-0.03-0.82-0.41-0.79-0.84l0.38-5.21
							c0.03-0.4,0.06-0.82-0.07-1.12c-0.14-0.35-0.53-0.65-0.93-0.98l-0.2-0.16c-3.34-2.72-4.99-7.1-4.22-11.17
							c0.08-0.43,0.51-0.72,0.98-0.64c0.46,0.08,0.77,0.49,0.69,0.92c-0.67,3.53,0.77,7.34,3.66,9.71l0.19,0.15
							c0.52,0.42,1.11,0.89,1.41,1.61c0.26,0.63,0.21,1.28,0.17,1.79l-0.38,5.21C295.58,140.59,295.21,140.91,294.77,140.91z"/>
					</g>
				</g>
			</g>
			<g>
				<g>
					<g>
						<path class="st1" d="M287.07,155.08c-0.07,0-0.14-0.01-0.22-0.03c-0.93-0.23-1.63-1.01-1.91-2.15
							c-0.06-0.24-0.11-0.48-0.15-0.73c-0.07-0.42-0.14-0.81-0.31-1.12c-0.18-0.34-0.5-0.65-0.84-0.98l-0.18-0.17
							c-4.77-4.63-5.94-11.42-6.88-16.88c-0.07-0.43,0.24-0.84,0.7-0.91c0.46-0.07,0.9,0.22,0.97,0.65
							c1.11,6.43,2.36,12.08,6.43,16.03l0.17,0.16c0.4,0.38,0.85,0.82,1.15,1.38c0.28,0.52,0.37,1.08,0.46,1.56
							c0.04,0.21,0.07,0.42,0.13,0.62c0.13,0.53,0.41,0.91,0.7,0.98c0.45,0.11,0.72,0.54,0.6,0.97
							C287.79,154.85,287.44,155.08,287.07,155.08z"/>
					</g>
				</g>
			</g>
			<g>
				<g>
					<g>
						<path class="st1" d="M277.29,170.09c-0.34,0-0.66-0.19-0.79-0.51c-1.08-2.63-2.23-4.57-3.6-6.12
							c-0.34-0.38-0.7-0.74-1.05-1.11c-0.47-0.48-0.95-0.97-1.4-1.5c-3.66-4.38-3.78-10.53-3.86-15.03c-0.01-0.44,0.37-0.8,0.83-0.8
							c0.48-0.04,0.85,0.34,0.86,0.78c0.1,5.54,0.44,10.42,3.5,14.08c0.4,0.48,0.84,0.93,1.31,1.4c0.38,0.38,0.76,0.77,1.11,1.17
							c1.49,1.68,2.73,3.76,3.88,6.56c0.17,0.41-0.05,0.87-0.49,1.02C277.49,170.07,277.39,170.09,277.29,170.09z"/>
					</g>
				</g>
			</g>
			<g>
				<g>
					<g>
						<path class="st1" d="M271.32,182.72c-0.17,0-0.34-0.05-0.49-0.14c-1.3-0.85-1.67-2.27-2-3.52c-0.14-0.53-0.27-1.03-0.46-1.48
							c-0.61-1.45-1.93-2.53-3.34-3.67c-0.36-0.29-0.71-0.58-1.05-0.88c-3.34-2.88-5.81-6.73-6.94-10.84
							c-0.12-0.42,0.16-0.85,0.61-0.96c0.45-0.11,0.92,0.15,1.03,0.57c1.05,3.82,3.34,7.4,6.45,10.08c0.33,0.28,0.67,0.56,1.02,0.85
							c1.49,1.22,3.04,2.48,3.8,4.29c0.23,0.55,0.38,1.13,0.53,1.68c0.29,1.12,0.55,2.09,1.33,2.6c0.38,0.25,0.48,0.74,0.21,1.1
							C271.85,182.61,271.58,182.72,271.32,182.72z"/>
					</g>
				</g>
			</g>
			<g>
				<g>
					<g>
						<path class="st1" d="M266.37,195.37c-0.24,0-0.48-0.1-0.65-0.28l-5.28-5.89c-0.69-0.77-1.41-1.56-2.05-2.43
							c-1.58-2.14-2.57-4.56-3.53-6.89l-1.61-3.93c-0.17-0.41,0.05-0.87,0.49-1.02c0.43-0.16,0.93,0.05,1.09,0.46l1.61,3.92
							c0.92,2.25,1.88,4.57,3.34,6.56c0.59,0.81,1.28,1.57,1.95,2.31l5.28,5.89c0.3,0.34,0.25,0.83-0.11,1.11
							C266.76,195.31,266.57,195.37,266.37,195.37z"/>
					</g>
				</g>
			</g>
			<g>
				<g>
					<g>
						<path class="st1" d="M282.96,192.61c-0.32,0-0.63-0.17-0.77-0.47c-0.19-0.4,0-0.87,0.43-1.04l4.01-1.68
							c0.43-0.18,0.93,0,1.12,0.4c0.19,0.4,0,0.87-0.43,1.04l-4.01,1.68C283.2,192.59,283.08,192.61,282.96,192.61z"/>
					</g>
				</g>
			</g>
			<g>
				<g>
					<g>
						<path class="st1" d="M239,206.58c-0.1,0-0.2-0.02-0.31-0.05c-0.44-0.16-0.65-0.61-0.49-1.02c0.46-1.1,0.38-2.36,0.31-3.69
							c-0.09-1.56-0.18-3.16,0.58-4.66c0.25-0.5,0.58-0.93,0.89-1.35c0.13-0.18,0.26-0.35,0.39-0.53c1.9-2.74,2.04-6.28,2.16-9.4
							c0.02-0.44,0.44-0.8,0.88-0.76c0.47,0.02,0.83,0.38,0.82,0.82c-0.12,3.16-0.28,7.09-2.43,10.2c-0.14,0.2-0.28,0.39-0.42,0.58
							c-0.29,0.38-0.55,0.74-0.75,1.12c-0.58,1.13-0.5,2.48-0.42,3.9c0.08,1.44,0.16,2.93-0.42,4.34
							C239.66,206.39,239.34,206.58,239,206.58z"/>
					</g>
				</g>
			</g>
			<g>
				<g>
					<g>
						<path class="st1" d="M233.09,196.63c-0.4,0-0.75-0.26-0.83-0.64c-0.43-2.1,0.2-4.33,1.69-5.95c0.21-0.23,0.44-0.45,0.66-0.66
							c0.31-0.3,0.61-0.58,0.84-0.89c0.39-0.52,0.64-1.17,0.85-1.75c1.44-4.07,1.99-8.47,1.61-12.74c-0.19-0.05-0.36-0.15-0.48-0.31
							c-0.27-0.36-0.17-0.85,0.21-1.1c0.33-0.21,0.74-0.25,1.1-0.09c0.53,0.23,0.81,0.81,0.86,1.28c0.41,4.51-0.17,9.16-1.69,13.46
							c-0.24,0.68-0.54,1.47-1.07,2.16c-0.31,0.41-0.67,0.75-1.01,1.08c-0.2,0.19-0.4,0.38-0.59,0.59
							c-1.14,1.25-1.65,3.02-1.32,4.63c0.09,0.43-0.21,0.84-0.67,0.93C233.19,196.62,233.14,196.63,233.09,196.63z"/>
					</g>
				</g>
			</g>
			<g>
				<g>
					<g>
						<path class="st1" d="M227.32,187.74c-0.4,0-0.75-0.26-0.83-0.64c-0.46-2.21,0.02-4.41,0.49-6.54l0.15-0.67
							c0.97-4.52,1.42-9.16,1.35-13.77c-0.01-0.71-0.08-1.48-0.53-1.79c-0.37-0.26-0.45-0.76-0.17-1.11
							c0.28-0.35,0.81-0.42,1.19-0.16c1.03,0.73,1.19,1.94,1.2,3.04c0.07,4.72-0.4,9.47-1.39,14.1l-0.15,0.68
							c-0.43,1.97-0.88,4.02-0.48,5.92c0.09,0.43-0.21,0.84-0.67,0.93C227.42,187.74,227.37,187.74,227.32,187.74z"/>
					</g>
				</g>
			</g>
			<g>
				<g>
					<g>
						<path class="st1" d="M219.6,177.56c-0.32,0-0.62-0.17-0.77-0.45c-1.3-2.55-1.24-5.69,0.15-8.19c0.06-0.11,0.13-0.22,0.19-0.34
							c0.17-0.29,0.32-0.56,0.42-0.82c0.13-0.39,0.16-0.85,0.18-1.3l0.3-5.76c0.01-0.2-0.01-0.34-0.04-0.42
							c-0.37-0.12-0.61-0.48-0.55-0.86c0.07-0.43,0.49-0.74,0.96-0.67c0.69,0.09,1.4,0.67,1.32,2.03l-0.3,5.76
							c-0.03,0.52-0.06,1.12-0.26,1.71c-0.14,0.4-0.34,0.75-0.54,1.09l-0.17,0.31c-1.15,2.08-1.2,4.68-0.13,6.79
							c0.2,0.39,0.02,0.87-0.4,1.05C219.85,177.54,219.72,177.56,219.6,177.56z"/>
					</g>
				</g>
			</g>
			<g>
				<g>
					<g>
						<path class="st1" d="M211.42,167.02c-0.44,0-0.81-0.31-0.84-0.72c-0.26-2.79-0.04-5.59,0.65-8.32c0.26-1,0.42-2.26-0.23-2.56
							c-0.42-0.19-0.59-0.67-0.38-1.06s0.72-0.55,1.14-0.36c2,0.93,1.34,3.5,1.13,4.35c-0.65,2.56-0.86,5.19-0.61,7.82
							c0.04,0.43-0.3,0.82-0.77,0.86C211.46,167.02,211.44,167.02,211.42,167.02z"/>
					</g>
				</g>
			</g>
			<g>
				<g>
					<g>
						<path class="st1" d="M206.17,159.61c-0.02,0-0.04,0-0.05,0c-3.46-0.2-6.9-0.76-10.23-1.65c-0.45-0.12-0.71-0.56-0.58-0.98
							c0.13-0.42,0.6-0.66,1.05-0.54c3.21,0.86,6.53,1.4,9.87,1.59c0.47,0.03,0.82,0.4,0.79,0.84
							C206.99,159.29,206.62,159.61,206.17,159.61z"/>
					</g>
				</g>
			</g>
			<g>
				<g>
					<g>
						<path class="st1" d="M213.24,171.28c-2.43,0-4.4-1.37-6.31-2.7c-1.68-1.17-3.26-2.27-5.08-2.46c-1.04-0.11-2.11,0.1-3.24,0.32
							c-0.8,0.16-1.63,0.32-2.48,0.37c-0.48,0.02-0.87-0.3-0.9-0.74c-0.03-0.44,0.32-0.81,0.79-0.84c0.73-0.04,1.47-0.19,2.24-0.34
							c1.21-0.24,2.46-0.48,3.77-0.35c2.27,0.23,4.12,1.52,5.91,2.76c1.87,1.3,3.63,2.53,5.66,2.37c0.45-0.04,0.88,0.29,0.92,0.72
							c0.04,0.43-0.31,0.82-0.77,0.85C213.58,171.27,213.4,171.28,213.24,171.28z"/>
					</g>
				</g>
			</g>
			<g>
				<g>
					<g>
						<path class="st1" d="M219.28,184.18c-0.56,0-1.11-0.03-1.67-0.1c-2-0.25-3.86-0.95-5.66-1.62c-1.56-0.58-3.04-1.14-4.6-1.42
							c-1.18-0.22-2.47-0.29-3.71-0.35c-2.49-0.13-5.06-0.27-7.27-1.58c-0.39-0.23-0.51-0.72-0.26-1.09
							c0.25-0.37,0.78-0.48,1.17-0.24c1.83,1.09,4.08,1.21,6.46,1.33c1.3,0.07,2.64,0.14,3.94,0.38c1.71,0.32,3.34,0.92,4.9,1.51
							c1.78,0.67,3.47,1.3,5.26,1.52c1.81,0.23,3.67,0.02,5.37-0.6c0.43-0.16,0.93,0.04,1.1,0.45s-0.04,0.87-0.48,1.02
							C222.38,183.91,220.83,184.18,219.28,184.18z"/>
					</g>
				</g>
			</g>
			<g>
				<g>
					<g>
						<path class="st1" d="M232.18,196.27c-0.08,0-0.15-0.01-0.23-0.03c-5.34-1.39-10.84-2.41-16.34-3.03l-0.94-0.1
							c-3.36-0.37-6.83-0.75-9.83-2.37c-0.3-0.16-0.61-0.34-0.91-0.52c-1.19-0.69-2.3-1.35-3.44-1.19
							c-0.47,0.06-0.89-0.23-0.96-0.67c-0.07-0.43,0.25-0.83,0.71-0.9c1.74-0.24,3.25,0.64,4.58,1.42c0.29,0.17,0.58,0.34,0.86,0.49
							c2.7,1.46,5.99,1.82,9.18,2.16l0.95,0.1c5.59,0.63,11.17,1.67,16.59,3.08c0.45,0.12,0.71,0.55,0.59,0.97
							C232.89,196.05,232.55,196.27,232.18,196.27z"/>
					</g>
				</g>
			</g>
			<g>
				<g>
					<g>
						<path class="st1" d="M239.66,209.56c-0.38,0-0.72-0.23-0.82-0.59c-1.03-3.67-5.28-4.69-9.38-5.68
							c-1.04-0.25-2.02-0.49-2.94-0.76c-1.31-0.39-2.61-0.78-3.89-1.08c-3.97-0.92-8.2-1.03-12.23-0.33
							c-0.46,0.07-0.9-0.2-0.99-0.63c-0.09-0.43,0.22-0.84,0.68-0.92c4.26-0.74,8.74-0.62,12.95,0.35c1.34,0.31,2.67,0.71,3.95,1.09
							c0.93,0.28,1.88,0.51,2.9,0.75c4.36,1.05,9.31,2.24,10.59,6.81c0.12,0.42-0.15,0.85-0.6,0.97
							C239.81,209.56,239.73,209.56,239.66,209.56z"/>
					</g>
				</g>
			</g>
		</g>
		<g>
			<g>
				<g>
					<g>
						<ellipse class="st1" cx="297.42" cy="340.99" rx="42.28" ry="38.78"/>
					</g>
				</g>
				<g>
					<g>
						<path d="M297.42,385.7c-26.82,0-48.64-20.06-48.64-44.71c0-24.65,21.82-44.71,48.64-44.71s48.64,20.06,48.64,44.71
							C346.05,365.64,324.23,385.7,297.42,385.7z M297.42,308.14c-19.81,0-35.92,14.73-35.92,32.85c0,18.11,16.11,32.85,35.92,32.85
							c19.81,0,35.92-14.73,35.92-32.85C333.33,322.88,317.22,308.14,297.42,308.14z"/>
					</g>
				</g>
			</g>
			<g>
				<g>
					<g>
						<rect x="293.58" y="292.04" width="9.1" height="9.04"/>
					</g>
				</g>
				<g>
					<g>
						<path d="M304.37,302.66h-12.49v-12.21h12.49V302.66z M295.27,299.5h5.71v-5.88h-5.71V299.5z"/>
					</g>
				</g>
			</g>
			<g>
				<g>
					<g>
						<polygon points="320.97,307.02 312.62,303.44 316.22,295.14 324.57,298.72 						"/>
					</g>
				</g>
				<g>
					<g>
						<path d="M321.88,309.15l-11.44-4.9l4.87-11.24l11.44,4.9L321.88,309.15z M314.8,302.64l5.27,2.26l2.33-5.37l-5.27-2.26
							L314.8,302.64z"/>
					</g>
				</g>
			</g>
			<g>
				<g>
					<g>
						<polygon points="340.95,312.39 334.52,318.78 328.08,312.39 334.52,305.99 						"/>
					</g>
				</g>
				<g>
					<g>
						<path d="M334.52,321.09l-8.76-8.71l8.76-8.71l8.76,8.71L334.52,321.09z M330.41,312.39l4.11,4.08l4.11-4.08l-4.11-4.08
							L330.41,312.39z"/>
					</g>
				</g>
			</g>
			<g>
				<g>
					<g>
						<polygon points="351.1,331.69 342.39,334.3 339.77,325.64 348.48,323.03 						"/>
					</g>
				</g>
				<g>
					<g>
						<path d="M341.24,336.31l-3.55-11.71l11.94-3.58l3.55,11.71L341.24,336.31z M341.84,326.68l1.7,5.61l5.48-1.64l-1.7-5.61
							L341.84,326.68z"/>
					</g>
				</g>
			</g>
			<g>
				<g>
					<g>
						<polygon points="351.26,353.12 342.22,352.09 343.25,343.11 352.29,344.13 						"/>
					</g>
				</g>
				<g>
					<g>
						<path d="M352.76,354.88l-12.41-1.4l1.39-12.13l12.41,1.4L352.76,354.88z M344.08,350.71l5.67,0.64l0.67-5.84l-5.67-0.64
							L344.08,350.71z"/>
					</g>
				</g>
			</g>
			<g>
				<g>
					<g>
						<polygon points="341.74,372.46 334.13,367.5 339.13,359.94 346.73,364.91 						"/>
					</g>
				</g>
				<g>
					<g>
						<path d="M342.24,374.72l-10.39-6.78l6.78-10.26l10.39,6.78L342.24,374.72z M336.41,367.06l4.82,3.15l3.21-4.86l-4.82-3.15
							L336.41,367.06z"/>
					</g>
				</g>
			</g>
			<g>
				<g>
					<g>
						<polygon points="325.01,386.03 320.03,378.46 327.65,373.51 332.63,381.08 						"/>
					</g>
				</g>
				<g>
					<g>
						<path d="M324.51,388.29l-6.76-10.27l10.4-6.76l6.76,10.27L324.51,388.29z M322.31,378.9l3.2,4.87l4.83-3.14l-3.2-4.87
							L322.31,378.9z"/>
					</g>
				</g>
			</g>
			<g>
				<g>
					<g>
						<polygon points="311.58,390.28 302.52,391.69 301.12,382.78 310.19,381.38 						"/>
					</g>
				</g>
				<g>
					<g>
						<path d="M301.09,393.51l-1.89-12.04l12.41-1.92l1.89,12.04L301.09,393.51z M303.04,384.09l0.91,5.77l5.72-0.89l-0.9-5.77
							L303.04,384.09z"/>
					</g>
				</g>
			</g>
			<g>
				<g>
					<g>
						<polygon points="288.37,390.62 279.45,388.49 281.57,379.73 290.49,381.86 						"/>
					</g>
				</g>
				<g>
					<g>
						<path d="M289.64,392.56l-12.21-2.91l2.86-11.85l12.21,2.91L289.64,392.56z M281.47,387.34l5.63,1.34l1.37-5.68l-5.64-1.34
							L281.47,387.34z"/>
					</g>
				</g>
			</g>
			<g>
				<g>
					<g>
						<polygon points="274.99,377.12 269.34,384.31 262.2,378.76 267.85,371.57 						"/>
					</g>
				</g>
				<g>
					<g>
						<path d="M269.64,386.6l-9.75-7.58l7.66-9.74l9.75,7.58L269.64,386.6z M264.51,378.5l4.53,3.52l3.64-4.63l-4.53-3.52
							L264.51,378.5z"/>
					</g>
				</g>
			</g>
			<g>
				<g>
					<g>
						<polygon points="262.1,365.99 254.15,370.56 249.62,362.75 257.56,358.19 						"/>
					</g>
				</g>
				<g>
					<g>
						<path d="M253.51,372.78l-6.15-10.59l10.84-6.22l6.15,10.59L253.51,372.78z M251.87,363.31l2.91,5.02l5.05-2.9l-2.91-5.02
							L251.87,363.31z"/>
					</g>
				</g>
			</g>
			<g>
				<g>
					<g>
						<polygon points="254.12,349.54 245.89,350.49 244.92,342.57 253.14,341.61 						"/>
					</g>
				</g>
				<g>
					<g>
						<path d="M244.4,352.26l-1.36-11.07l11.59-1.35l1.36,11.07L244.4,352.26z M246.79,343.94l0.59,4.78l4.86-0.57l-0.59-4.78
							L246.79,343.94z"/>
					</g>
				</g>
			</g>
			<g>
				<g>
					<g>
						<polygon points="254.18,335.29 245.5,332.34 248.43,323.81 257.11,326.76 						"/>
					</g>
				</g>
				<g>
					<g>
						<path d="M255.26,337.34l-11.87-4.03l3.96-11.54l11.87,4.03L255.26,337.34z M247.61,331.38l5.49,1.87l1.89-5.51l-5.49-1.87
							L247.61,331.38z"/>
					</g>
				</g>
			</g>
			<g>
				<g>
					<g>
						<polygon points="283.66,303.37 275.36,307.05 271.65,298.79 279.95,295.11 						"/>
					</g>
				</g>
				<g>
					<g>
						<path d="M274.48,309.19l-5.02-11.18l11.37-5.05l5.02,11.18L274.48,309.19z M273.84,299.58l2.4,5.34l5.24-2.33l-2.4-5.34
							L273.84,299.58z"/>
					</g>
				</g>
			</g>
			<g>
				<g>
					<g>
						<polygon points="268.17,312.39 261.73,318.78 255.3,312.39 261.73,305.99 						"/>
					</g>
				</g>
				<g>
					<g>
						<path d="M261.73,321.09l-8.76-8.71l8.76-8.71l8.76,8.71L261.73,321.09z M257.63,312.39l4.11,4.08l4.11-4.08l-4.11-4.08
							L257.63,312.39z"/>
					</g>
				</g>
			</g>
			<g>
				<g>
					<g>
						<ellipse class="st2" cx="203.05" cy="333.65" rx="34.66" ry="32.17"/>
					</g>
				</g>
				<g>
					<g>
						<path d="M203.05,369.78c-21.45,0-38.9-16.21-38.9-36.12s17.45-36.12,38.9-36.12s38.9,16.21,38.9,36.12
							S224.49,369.78,203.05,369.78z M203.05,305.44c-16.77,0-30.42,12.66-30.42,28.22s13.65,28.22,30.42,28.22
							s30.42-12.66,30.42-28.22S219.82,305.44,203.05,305.44z"/>
					</g>
				</g>
			</g>
			<g>
				<g>
					<g>
						<rect x="199.05" y="293.26" width="7.26" height="7.31"/>
					</g>
				</g>
				<g>
					<g>
						<path d="M208.01,302.15h-10.65v-10.48h10.65V302.15z M200.75,298.99h3.87v-4.15h-3.87V298.99z"/>
					</g>
				</g>
			</g>
			<g>
				<g>
					<g>
						<polygon points="220.91,305.37 214.25,302.48 217.12,295.77 223.78,298.66 						"/>
					</g>
				</g>
				<g>
					<g>
						<path d="M221.82,307.51l-9.75-4.23l4.13-9.66l9.75,4.23L221.82,307.51z M216.41,301.68l3.59,1.56l1.61-3.77l-3.59-1.56
							L216.41,301.68z"/>
					</g>
				</g>
			</g>
			<g>
				<g>
					<g>
						<polygon points="236.85,309.71 231.72,314.88 226.58,309.71 231.72,304.54 						"/>
					</g>
				</g>
				<g>
					<g>
						<path d="M231.72,317.21l-7.44-7.5l7.44-7.5l7.44,7.5L231.72,317.21z M228.89,309.71l2.82,2.84l2.82-2.84l-2.82-2.84
							L228.89,309.71z"/>
					</g>
				</g>
			</g>
			<g>
				<g>
					<g>
						<polygon points="244.95,325.31 238,327.42 235.9,320.42 242.85,318.31 						"/>
					</g>
				</g>
				<g>
					<g>
						<path d="M236.84,329.44l-3.01-10.05l10.18-3.09l3.01,10.05L236.84,329.44z M237.97,321.46l1.18,3.95l3.72-1.13l-1.18-3.95
							L237.97,321.46z"/>
					</g>
				</g>
			</g>
			<g>
				<g>
					<g>
						<polygon points="245.51,341.81 239.45,341.05 240.14,334.37 246.2,335.13 						"/>
					</g>
				</g>
				<g>
					<g>
						<path d="M247.03,343.6l-9.42-1.18l1.01-9.83l9.42,1.18L247.03,343.6z M241.3,339.69l2.69,0.34l0.36-3.53l-2.69-0.34
							L241.3,339.69z"/>
					</g>
				</g>
			</g>
			<g>
				<g>
					<g>
						<polygon points="237.47,358.27 231.41,354.26 235.39,348.15 241.46,352.16 						"/>
					</g>
				</g>
				<g>
					<g>
						<path d="M237.98,360.55l-8.84-5.85l5.75-8.82l8.84,5.85L237.98,360.55z M233.68,353.82l3.29,2.18l2.22-3.4l-3.29-2.18
							L233.68,353.82z"/>
					</g>
				</g>
			</g>
			<g>
				<g>
					<g>
						<polygon points="224.13,369.24 220.16,363.12 226.24,359.12 230.21,365.24 						"/>
					</g>
				</g>
				<g>
					<g>
						<path d="M223.62,371.51l-5.73-8.83l8.85-5.83l5.73,8.83L223.62,371.51z M222.43,363.56l2.21,3.41l3.3-2.17l-2.21-3.41
							L222.43,363.56z"/>
					</g>
				</g>
			</g>
			<g>
				<g>
					<g>
						<polygon points="204.6,373.96 204.09,366.9 211.53,365.72 212.04,372.78 						"/>
					</g>
				</g>
				<g>
					<g>
						<path d="M203.03,375.81l-0.73-10.23l10.8-1.72l0.73,10.23L203.03,375.81z M205.89,368.22l0.28,3.88l4.08-0.65l-0.28-3.88
							L205.89,368.22z"/>
					</g>
				</g>
			</g>
			<g>
				<g>
					<g>
						<polygon points="194.9,372.95 187.78,371.23 189.47,364.15 196.59,365.87 						"/>
					</g>
				</g>
				<g>
					<g>
						<path d="M196.18,374.89l-10.4-2.52l2.42-10.17l10.4,2.51L196.18,374.89z M189.8,370.08l3.83,0.93l0.95-3.99l-3.83-0.93
							L189.8,370.08z"/>
					</g>
				</g>
			</g>
			<g>
				<g>
					<g>
						<polygon points="184.23,362.04 179.72,367.85 174.02,363.36 178.53,357.55 						"/>
					</g>
				</g>
				<g>
					<g>
						<path d="M180.02,370.16l-8.3-6.53l6.5-8.38l8.3,6.53L180.02,370.16z M176.32,363.1l3.1,2.44l2.51-3.24l-3.1-2.44L176.32,363.1
							z"/>
					</g>
				</g>
			</g>
			<g>
				<g>
					<g>
						<polygon points="173.94,353.04 167.6,356.73 163.98,350.42 170.32,346.74 						"/>
					</g>
				</g>
				<g>
					<g>
						<path d="M166.96,358.97l-5.22-9.11l9.22-5.36l5.22,9.1L166.96,358.97z M166.23,350.98l2.01,3.51l3.46-2.01l-2.01-3.51
							L166.23,350.98z"/>
					</g>
				</g>
			</g>
			<g>
				<g>
					<g>
						<polygon points="167.94,340.66 160.67,341.53 159.82,334.3 167.09,333.42 						"/>
					</g>
				</g>
				<g>
					<g>
						<path d="M159.18,343.3l-1.23-10.38l10.63-1.28l1.23,10.38L159.18,343.3z M161.69,335.67l0.48,4.09l3.9-0.47l-0.48-4.09
							L161.69,335.67z"/>
					</g>
				</g>
			</g>
			<g>
				<g>
					<g>
						<polygon points="167.63,328.22 160.7,325.84 163.04,318.95 169.96,321.33 						"/>
					</g>
				</g>
				<g>
					<g>
						<path d="M168.71,330.28l-10.11-3.48l3.36-9.91l10.11,3.48L168.71,330.28z M162.8,324.88l3.74,1.29l1.31-3.87l-3.74-1.29
							L162.8,324.88z"/>
					</g>
				</g>
			</g>
			<g>
				<g>
					<g>
						<polygon points="191.15,302.42 184.52,305.4 181.56,298.72 188.19,295.74 						"/>
					</g>
				</g>
				<g>
					<g>
						<path d="M183.64,307.55l-4.26-9.6l9.69-4.36l4.26,9.6L183.64,307.55z M183.74,299.5l1.66,3.75l3.57-1.6l-1.66-3.75
							L183.74,299.5z"/>
					</g>
				</g>
			</g>
			<g>
				<g>
					<g>
						<polygon points="178.78,309.71 173.65,314.88 168.52,309.71 173.65,304.54 						"/>
					</g>
				</g>
				<g>
					<g>
						<path d="M173.65,317.21l-7.44-7.5l7.44-7.5l7.44,7.5L173.65,317.21z M170.83,309.71l2.82,2.84l2.82-2.84l-2.82-2.84
							L170.83,309.71z"/>
					</g>
				</g>
			</g>
			<g>
				<g>
					<g>
						<path d="M202.86,345.85c-7.4,0-13.42-5.42-13.42-12.09s6.02-12.09,13.42-12.09c7.4,0,13.42,5.42,13.42,12.09
							S210.25,345.85,202.86,345.85z M202.86,327.99c-3.66,0-6.63,2.59-6.63,5.76s2.98,5.76,6.63,5.76s6.63-2.59,6.63-5.76
							S206.51,327.99,202.86,327.99z"/>
					</g>
				</g>
			</g>
			<g>
				<g>
					<g>
						<path d="M298.58,355.06c-7.25,0-13.14-5.76-13.14-12.83c0-7.07,5.9-12.83,13.14-12.83c7.25,0,13.14,5.76,13.14,12.83
							C311.72,349.31,305.83,355.06,298.58,355.06z M298.58,336.52c-3.04,0-5.51,2.56-5.51,5.71s2.47,5.71,5.51,5.71
							c3.04,0,5.51-2.56,5.51-5.71S301.62,336.52,298.58,336.52z"/>
					</g>
				</g>
			</g>
			<g>
				<g>
					<g>
						<path d="M298.12,328.38c-5.91,0-10.72-4.58-10.72-10.22c0-5.63,4.81-10.22,10.72-10.22c5.91,0,10.72,4.58,10.72,10.22
							C308.84,323.79,304.03,328.38,298.12,328.38z M298.12,310.31c-4.51,0-8.18,3.52-8.18,7.84s3.67,7.84,8.18,7.84
							c4.51,0,8.18-3.52,8.18-7.84S302.63,310.31,298.12,310.31z"/>
					</g>
				</g>
			</g>
			<g>
				<g>
					<g>
						<path d="M324.07,352.74c-6.33,0-11.49-4.9-11.49-10.92c0-6.02,5.15-10.92,11.49-10.92s11.49,4.9,11.49,10.92
							C335.56,347.84,330.41,352.74,324.07,352.74z M324.07,333.27c-4.93,0-8.94,3.84-8.94,8.55c0,4.72,4.01,8.55,8.94,8.55
							s8.94-3.84,8.94-8.55C333.02,337.1,329.01,333.27,324.07,333.27z"/>
					</g>
				</g>
			</g>
			<g>
				<g>
					<g>
						<path d="M298.5,376.21c-5.97,0-10.82-4.68-10.82-10.43c0-5.75,4.85-10.43,10.82-10.43c5.97,0,10.82,4.68,10.82,10.43
							C309.32,371.53,304.46,376.21,298.5,376.21z M298.5,357.72c-4.56,0-8.28,3.61-8.28,8.06c0,4.44,3.71,8.06,8.28,8.06
							c4.56,0,8.28-3.61,8.28-8.06C306.77,361.33,303.06,357.72,298.5,357.72z"/>
					</g>
				</g>
			</g>
			<g>
				<g>
					<g>
						<path d="M271.7,353.49c-6.14,0-11.13-4.79-11.13-10.68c0-5.89,4.99-10.69,11.13-10.69c6.14,0,11.13,4.79,11.13,10.69
							C282.84,348.69,277.84,353.49,271.7,353.49z M271.7,334.49c-4.74,0-8.59,3.73-8.59,8.31c0,4.58,3.85,8.31,8.59,8.31
							s8.59-3.73,8.59-8.31C280.29,338.22,276.44,334.49,271.7,334.49z"/>
					</g>
				</g>
			</g>
		</g>
	</g>
	<g>
		<g>
			<path class="st1" d="M256.15,481.01v-55c99.53,0,180.5-79.18,180.5-176.5s-80.97-176.5-180.5-176.5v-55
				c62.8,0,121.88,24.01,166.33,67.62c44.6,43.74,69.17,101.95,69.17,163.88s-24.56,120.14-69.17,163.88
				C378.03,457,318.96,481.01,256.15,481.01z"/>
		</g>
	</g>
	<g>
		<g>
			<path class="st0" d="M256.15,481.01c-62.8,0-121.88-24.01-166.33-67.62c-44.6-43.74-69.17-101.95-69.17-163.88
				S45.22,129.37,89.82,85.63c44.46-43.6,103.53-67.62,166.33-67.62v55c-99.53,0-180.5,79.18-180.5,176.5s80.97,176.5,180.5,176.5
				V481.01z"/>
			<path class="st0" d="M256.65,481.51h-0.5c-62.93,0-122.13-24.06-166.68-67.76c-44.7-43.84-69.32-102.17-69.32-164.24
				s24.62-120.4,69.32-164.24c44.55-43.7,103.75-67.76,166.68-67.76h0.5v56h-0.5c-99.25,0-180,78.95-180,176s80.75,176,180,176h0.5
				V481.51z M255.65,18.51c-62.48,0.13-121.24,24.08-165.48,67.47c-44.51,43.65-69.02,101.72-69.02,163.53
				s24.51,119.88,69.02,163.53c44.25,43.39,103,67.35,165.48,67.47v-54c-99.58-0.26-180.5-79.56-180.5-177s80.92-176.74,180.5-177
				V18.51z"/>
		</g>
	</g>
</g>
</svg>
