<?xml version="1.0" encoding="utf-8"?>
<!-- Generator: Adobe Illustrator 26.0.1, SVG Export Plug-In . SVG Version: 6.00 Build 0)  -->
<svg version="1.1" id="Lager_1" xmlns="http://www.w3.org/2000/svg" xmlns:xlink="http://www.w3.org/1999/xlink" x="0px" y="0px"
	 viewBox="0 0 503 498" style="enable-background:new 0 0 503 498;" xml:space="preserve">
<style type="text/css">
	.st0{fill:#00BE5F;}
	.st1{fill:#2819FF;}
	.st2{fill:#00F0AF;}
</style>
<g>
	<g>
		<g>
			<g>
				<path class="st0" d="M254.67,340.11c-8.22-21.33-6.7-32.07-3.39-37.96c0.7-1.25,2.55-4.17,4.24-8.7
					c0.55-1.48,2.24-6.2,3.39-17.4c0.45-4.33,0.97-9.38,0.85-15.82c-0.26-13.78-3.08-14.35-3.39-25.31
					c-0.21-7.32-0.53-18.69,6.78-28.47c2.88-3.85,6.31-6.61,11.87-11.07c6.41-5.15,7.72-5.05,14.41-10.28
					c6.8-5.31,11.19-8.75,14.41-14.24c3.52-6,3.96-11.61,4.24-15.82c2.99-44.78,3.11-48.44,0-49.83c-6.62-2.96-19.01,8.4-28.83,17.4
					c-8.34,7.65-13.24,14.5-16.96,19.77c-6.63,9.39-12.34,17.67-13.57,28.47c-0.62,5.43-0.07,11.2,0,11.86
					c0.33,3.34,0.74,7.18,2.54,11.86c1.6,4.17,2.17,3.44,2.54,5.54c0.9,5.04-2.78,6.91-5.09,15.82c-0.98,3.76-0.82,5.37-1.7,5.54
					c-1.94,0.38-5.96-6.89-7.63-14.24c-2.03-8.9,0.99-10.9,0-20.56c-0.46-4.52-1.35-13.26-7.63-20.56
					c-1.19-1.39-2.75-2.92-19.5-11.86c-13.92-7.43-15.42-7.74-16.96-7.12c-6.78,2.76-5.3,19.99-2.54,30.05
					c1.74,6.38,4.05,14.83,11.87,20.56c7.47,5.48,16.96,7.91,16.96,7.91c4.4,1.13,6.67,1.05,9.33,3.16
					c3.06,2.44,2.58,4.54,5.94,11.07c3.48,6.76,4.79,6.05,6.78,11.07c1.66,4.19,0.77,4.74,2.54,12.65
					c1.87,8.33,3.01,8.41,3.39,12.65c0.48,5.26-1.22,5.86-3.39,15.82c-2.09,9.61-0.89,10.74-3.39,21.35
					c-0.57,2.43-1.29,5.46-2.54,9.49c-2.2,7.08-3.6,9.29-4.24,14.24c-0.36,2.77-0.76,5.8,0,8.7
					C238.5,335.4,252.28,339.44,254.67,340.11z"/>
			</g>
			<g>
				<path class="st0" d="M257.41,342.53l-3.22-0.9c-4-1.12-17.25-5.53-19.81-15.38c-0.83-3.18-0.41-6.41-0.04-9.26
					c0.44-3.37,1.22-5.56,2.3-8.58c0.58-1.62,1.24-3.46,2-5.91c1.24-3.98,1.95-6.97,2.51-9.38c1.31-5.53,1.58-8.36,1.87-11.36
					c0.25-2.64,0.52-5.37,1.52-9.98c0.9-4.14,1.74-6.73,2.35-8.62c0.87-2.7,1.27-3.94,1.02-6.75c-0.18-1.94-0.51-2.89-1.07-4.45
					c-0.57-1.59-1.34-3.78-2.29-8.01c-0.82-3.67-1.09-5.83-1.28-7.41c-0.23-1.88-0.36-2.91-1.19-5.02
					c-0.93-2.34-1.66-3.27-2.66-4.56c-1.02-1.3-2.28-2.92-4.06-6.38c-1.32-2.57-2.05-4.45-2.64-5.96c-0.9-2.31-1.31-3.36-2.86-4.59
					c-1.64-1.31-3.1-1.61-5.52-2.12c-0.92-0.19-1.96-0.41-3.16-0.72c-0.4-0.1-9.9-2.58-17.56-8.19
					c-8.27-6.07-10.7-14.94-12.47-21.42c-1.94-7.11-5.47-28.24,3.51-31.89c2.37-0.97,4.09-0.49,18.48,7.19
					c17.48,9.33,18.69,10.75,19.98,12.25c6.6,7.68,7.54,16.95,8,21.4c0.47,4.6,0.06,7.57-0.3,10.2c-0.41,3.02-0.77,5.62,0.27,10.19
					c1.25,5.5,3.71,10.35,5.24,12.24c0.02-0.09,0.04-0.18,0.05-0.28c0.16-0.82,0.37-1.93,0.73-3.31c1.06-4.1,2.4-6.75,3.47-8.89
					c1.25-2.48,2-3.98,1.59-6.3c-0.13-0.72-0.23-0.88-0.56-1.39c-0.41-0.63-1.03-1.59-1.91-3.87c-1.91-4.97-2.31-9.01-2.64-12.25
					c-0.11-1.08-0.62-6.74,0-12.18c1.29-11.4,7.39-20.03,13.84-29.17c3.4-4.82,8.54-12.11,17.19-20.03
					c10.81-9.91,23.05-21.13,30.75-17.7c4.26,1.9,4.07,4.69,0.96,51.35c-0.27,4-0.67,10.04-4.44,16.48
					c-3.37,5.75-7.92,9.31-14.81,14.69c-3.31,2.59-5.33,3.89-7.28,5.16c-2,1.3-3.9,2.52-7.12,5.11c-5.5,4.42-8.83,7.09-11.59,10.78
					c-7,9.35-6.68,20.29-6.48,27.53c0.14,4.95,0.81,7.71,1.52,10.63c0.85,3.52,1.74,7.17,1.88,14.69c0.12,6.53-0.4,11.56-0.86,16
					c-0.8,7.76-1.97,13.74-3.48,17.77c-1.51,4.04-3.13,6.83-4,8.33c-0.13,0.22-0.24,0.42-0.34,0.58c-4.2,7.46-3.03,19.81,3.49,36.69
					L257.41,342.53z M196.34,148.53c-0.14,0-0.25,0.02-0.34,0.06c-4.93,2-4.79,16.48-1.58,28.21c1.74,6.37,3.91,14.3,11.28,19.71
					c7.1,5.21,16.27,7.6,16.36,7.63c1.12,0.29,2.12,0.5,3,0.68c2.62,0.55,4.69,0.99,6.97,2.8c2.23,1.77,2.87,3.42,3.85,5.92
					c0.56,1.45,1.27,3.25,2.52,5.67c1.64,3.2,2.76,4.62,3.74,5.88c1.08,1.38,2.01,2.57,3.1,5.33c0.98,2.46,1.15,3.84,1.38,5.76
					c0.2,1.6,0.44,3.59,1.23,7.12c0.91,4.05,1.62,6.05,2.19,7.66c0.59,1.66,1.02,2.87,1.23,5.18c0.31,3.41-0.24,5.11-1.15,7.93
					c-0.62,1.93-1.4,4.34-2.27,8.34c-0.97,4.43-1.21,6.96-1.47,9.63c-0.29,2.97-0.58,6.03-1.93,11.75c-0.58,2.46-1.3,5.51-2.57,9.59
					c-0.78,2.5-1.45,4.37-2.04,6.02c-1.05,2.95-1.75,4.91-2.15,7.96c-0.35,2.71-0.72,5.51-0.04,8.14
					c1.68,6.45,9.33,10.24,14.25,12.04c-5.89-16.39-6.59-28.23-2.14-36.13c0.1-0.17,0.22-0.38,0.36-0.62
					c0.83-1.42,2.36-4.07,3.78-7.86c1.77-4.73,2.77-11.87,3.3-17.03c0.45-4.35,0.96-9.29,0.84-15.64
					c-0.13-7.2-0.98-10.68-1.79-14.05c-0.75-3.08-1.45-5.98-1.6-11.24c-0.22-7.65-0.55-19.21,7.09-29.42
					c3-4.02,6.45-6.78,12.16-11.37c3.36-2.7,5.32-3.97,7.4-5.31c1.89-1.22,3.84-2.48,7.03-4.98c6.83-5.33,10.95-8.56,14.02-13.78
					c3.41-5.82,3.77-11.22,4.03-15.16c2.55-38.28,3.08-47.36,0.96-48.3c-5.55-2.47-18.4,9.3-26.91,17.1
					c-8.39,7.69-13.21,14.52-16.73,19.51c-6.22,8.81-12.09,17.13-13.3,27.77c-0.6,5.25-0.06,10.92,0,11.55
					c0.3,3.07,0.68,6.88,2.45,11.48c0.77,1.99,1.26,2.75,1.62,3.31c0.48,0.74,0.78,1.27,1,2.5c0.59,3.29-0.5,5.44-1.87,8.16
					c-1.01,2-2.26,4.49-3.24,8.28c-0.33,1.29-0.53,2.31-0.69,3.13c-0.35,1.82-0.63,3.26-2.31,3.59c-4.46,0.86-8.63-11.02-9.64-15.46
					c-1.16-5.09-0.75-8.08-0.32-11.25c0.35-2.58,0.72-5.25,0.29-9.49c-0.46-4.47-1.3-12.78-7.27-19.72
					c-0.94-1.09-2.1-2.45-19.02-11.48C201.59,150.37,197.71,148.53,196.34,148.53z"/>
			</g>
		</g>
		<g>
			<g>
				<path class="st1" d="M261.03,200.52c-0.07,0-0.14-0.01-0.21-0.02c-0.45-0.11-0.73-0.54-0.61-0.96
					c1.76-6.47,4.06-12.89,6.82-19.09c2.23-5,4.62-9.46,13.61-24.6c4.6-7.74,6.85-11.41,8.34-13.83c1.37-2.24,2.13-3.47,3.52-5.93
					c5.36-9.43,10.19-19.51,14.37-29.96c0.16-0.41,0.65-0.62,1.09-0.46c0.44,0.15,0.66,0.61,0.5,1.02
					c-4.2,10.51-9.07,20.65-14.46,30.15c-1.41,2.48-2.17,3.72-3.55,5.97c-1.49,2.42-3.74,6.08-8.33,13.81
					c-9.5,16-11.5,19.89-13.53,24.44c-2.73,6.13-5,12.48-6.74,18.87C261.76,200.28,261.41,200.52,261.03,200.52z"/>
			</g>
		</g>
		<g>
			<g>
				<path class="st1" d="M235.17,204.08c-0.29,0-0.58-0.14-0.74-0.4c-2.42-3.95-4.98-7.94-7.61-11.83
					c-3.42-5.07-6.11-8.75-11.85-16.58c-2.4-3.27-3.84-5.21-5.03-6.8c-1.43-1.92-2.46-3.3-4.3-5.86c-3.21-4.46-6.35-8.99-9.34-13.47
					c-0.25-0.37-0.13-0.86,0.27-1.09c0.4-0.23,0.92-0.12,1.17,0.25c2.98,4.46,6.11,8.98,9.31,13.42c1.84,2.55,2.86,3.93,4.29,5.84
					c1.19,1.59,2.63,3.53,5.04,6.81c5.35,7.3,8.3,11.32,11.89,16.63c2.64,3.92,5.22,7.92,7.65,11.89c0.23,0.38,0.09,0.86-0.32,1.08
					C235.46,204.05,235.31,204.08,235.17,204.08z"/>
			</g>
		</g>
		<g>
			<g>
				<path class="st1" d="M261.51,199.94c-0.23,0-0.46-0.09-0.63-0.26c-0.31-0.33-0.28-0.83,0.06-1.12c3.4-2.84,7.18-5.28,11.23-7.25
					c2.06-1,4.31-1.92,6.76-1.81c0.47,0.02,0.83,0.39,0.81,0.82c-0.02,0.44-0.46,0.78-0.88,0.76c-2.06-0.08-4.04,0.74-5.9,1.64
					c-3.93,1.9-7.59,4.27-10.88,7.02C261.91,199.88,261.71,199.94,261.51,199.94z"/>
			</g>
		</g>
		<g>
			<g>
				<path class="st1" d="M266.88,185.38c-0.13,0-0.27-0.03-0.4-0.09c-0.41-0.21-0.57-0.69-0.35-1.07c2.61-4.55,7.87-7.67,13.4-7.94
					c1.28-0.06,2.56,0.02,3.8,0.09c1.6,0.1,3.11,0.19,4.6,0c2.77-0.35,5.22-1.63,7.82-2.99c1.7-0.89,3.46-1.8,5.32-2.45
					c0.44-0.15,0.93,0.06,1.09,0.47c0.16,0.41-0.06,0.87-0.5,1.02c-1.74,0.6-3.44,1.49-5.09,2.34c-2.62,1.37-5.33,2.78-8.42,3.17
					c-1.66,0.21-3.33,0.11-4.94,0.01c-1.24-0.08-2.42-0.15-3.59-0.09c-4.95,0.25-9.65,3.04-11.99,7.11
					C267.47,185.22,267.18,185.38,266.88,185.38z"/>
			</g>
		</g>
		<g>
			<g>
				<path class="st1" d="M274.72,168.35c-0.25,0-0.49-0.1-0.66-0.29c-0.3-0.34-0.25-0.84,0.12-1.11c4.21-3.22,8.96-5.68,14.12-7.29
					c0.84-0.26,1.75-0.5,2.73-0.51c0.37,0.01,0.72,0.05,1.06,0.09c0.34,0.04,0.66,0.09,0.98,0.08c0.68-0.02,1.39-0.28,2.07-0.53
					c3.54-1.31,7.94-2.94,10.44-6.1c0.28-0.35,0.81-0.43,1.19-0.17c0.38,0.26,0.46,0.76,0.18,1.11c-2.79,3.52-7.44,5.24-11.18,6.63
					c-0.78,0.29-1.68,0.62-2.66,0.64c-0.44,0.01-0.85-0.04-1.25-0.09c-0.3-0.04-0.59-0.07-0.86-0.08c-0.71,0-1.46,0.2-2.16,0.42
					c-4.97,1.55-9.54,3.91-13.58,7.01C275.1,168.29,274.91,168.35,274.72,168.35z"/>
			</g>
		</g>
		<g>
			<g>
				<path class="st1" d="M286.12,150.18c-0.13,0-0.27-0.03-0.39-0.09c-0.41-0.2-0.57-0.68-0.35-1.07c2.5-4.42,7.72-6.65,12.85-8.56
					c0.99-0.37,1.99-0.74,2.92-1.16c2.9-1.33,5.45-3.31,7.37-5.74c0.28-0.35,0.81-0.43,1.19-0.17c0.38,0.26,0.46,0.75,0.18,1.11
					c-2.08,2.64-4.84,4.79-7.99,6.23c-0.99,0.45-2.01,0.83-3,1.2c-5.07,1.89-9.78,3.9-12.02,7.84
					C286.72,150.03,286.43,150.18,286.12,150.18z"/>
			</g>
		</g>
		<g>
			<g>
				<path class="st1" d="M298.26,128.5c-0.11,0-0.21-0.02-0.32-0.06c-0.43-0.16-0.65-0.62-0.47-1.03c1.06-2.48,3.63-3.68,6.1-4.85
					c2.27-1.07,4.41-2.08,5.29-3.96c0.19-0.4,0.69-0.59,1.11-0.41c0.43,0.17,0.63,0.64,0.44,1.04c-1.11,2.41-3.64,3.59-6.08,4.74
					c-2.3,1.08-4.47,2.11-5.3,4.03C298.92,128.31,298.6,128.5,298.26,128.5z"/>
			</g>
		</g>
		<g>
			<g>
				<path class="st1" d="M298.96,124.12c-0.46,0-0.83-0.34-0.85-0.77c-0.13-3.73-1.52-7.33-2.87-10.82
					c-0.16-0.41,0.07-0.86,0.51-1.01c0.44-0.15,0.93,0.06,1.09,0.47c1.4,3.61,2.84,7.34,2.97,11.31c0.02,0.44-0.35,0.8-0.82,0.82
					C298.97,124.12,298.96,124.12,298.96,124.12z"/>
			</g>
		</g>
		<g>
			<g>
				<path class="st1" d="M291.27,139.16c-0.02,0-0.04,0-0.06,0c-0.47-0.03-0.82-0.41-0.79-0.84l0.38-5.21
					c0.03-0.4,0.06-0.82-0.07-1.12c-0.14-0.35-0.53-0.65-0.93-0.98l-0.2-0.16c-3.34-2.72-4.99-7.1-4.22-11.17
					c0.08-0.43,0.51-0.72,0.98-0.64c0.46,0.08,0.77,0.49,0.69,0.92c-0.67,3.53,0.77,7.34,3.66,9.71l0.19,0.15
					c0.52,0.42,1.11,0.89,1.41,1.61c0.26,0.63,0.21,1.28,0.17,1.79l-0.38,5.21C292.08,138.84,291.71,139.16,291.27,139.16z"/>
			</g>
		</g>
		<g>
			<g>
				<path class="st1" d="M283.57,153.33c-0.07,0-0.14-0.01-0.22-0.03c-0.93-0.23-1.63-1.01-1.91-2.15
					c-0.06-0.24-0.11-0.48-0.15-0.73c-0.07-0.42-0.14-0.81-0.31-1.12c-0.18-0.34-0.5-0.65-0.84-0.98l-0.18-0.17
					c-4.77-4.63-5.94-11.42-6.88-16.88c-0.07-0.43,0.24-0.84,0.7-0.91c0.46-0.07,0.9,0.22,0.97,0.65
					c1.11,6.43,2.36,12.08,6.43,16.03l0.17,0.16c0.4,0.38,0.85,0.82,1.15,1.38c0.28,0.52,0.37,1.08,0.46,1.56
					c0.04,0.21,0.07,0.42,0.13,0.62c0.13,0.53,0.41,0.91,0.7,0.98c0.45,0.11,0.72,0.54,0.6,0.97
					C284.29,153.1,283.94,153.33,283.57,153.33z"/>
			</g>
		</g>
		<g>
			<g>
				<path class="st1" d="M273.79,168.34c-0.34,0-0.66-0.19-0.79-0.51c-1.08-2.63-2.23-4.57-3.6-6.12c-0.34-0.38-0.7-0.74-1.05-1.11
					c-0.47-0.48-0.95-0.97-1.4-1.5c-3.66-4.38-3.78-10.53-3.86-15.03c-0.01-0.44,0.37-0.8,0.83-0.8c0.48-0.04,0.85,0.34,0.86,0.78
					c0.1,5.54,0.44,10.42,3.5,14.08c0.4,0.48,0.84,0.93,1.31,1.4c0.38,0.38,0.76,0.77,1.11,1.17c1.49,1.68,2.73,3.76,3.88,6.56
					c0.17,0.41-0.05,0.87-0.49,1.02C273.99,168.32,273.89,168.34,273.79,168.34z"/>
			</g>
		</g>
		<g>
			<g>
				<path class="st1" d="M267.82,180.97c-0.17,0-0.34-0.05-0.49-0.14c-1.3-0.85-1.67-2.27-2-3.52c-0.14-0.53-0.27-1.03-0.46-1.48
					c-0.61-1.45-1.93-2.53-3.34-3.67c-0.36-0.29-0.71-0.58-1.05-0.88c-3.34-2.88-5.81-6.73-6.94-10.84
					c-0.12-0.42,0.16-0.85,0.61-0.96c0.45-0.11,0.92,0.15,1.03,0.57c1.05,3.82,3.34,7.4,6.45,10.08c0.33,0.28,0.67,0.56,1.02,0.85
					c1.49,1.22,3.04,2.48,3.8,4.29c0.23,0.55,0.38,1.13,0.53,1.68c0.29,1.12,0.55,2.09,1.33,2.6c0.38,0.25,0.48,0.74,0.21,1.1
					C268.35,180.86,268.08,180.97,267.82,180.97z"/>
			</g>
		</g>
		<g>
			<g>
				<path class="st1" d="M262.87,193.62c-0.24,0-0.48-0.1-0.65-0.28l-5.28-5.89c-0.69-0.77-1.41-1.56-2.05-2.43
					c-1.58-2.14-2.57-4.56-3.53-6.89l-1.61-3.93c-0.17-0.41,0.05-0.87,0.49-1.02c0.43-0.16,0.93,0.05,1.09,0.46l1.61,3.92
					c0.92,2.25,1.88,4.57,3.34,6.56c0.59,0.81,1.28,1.57,1.95,2.31l5.28,5.89c0.3,0.34,0.25,0.83-0.11,1.11
					C263.26,193.56,263.07,193.62,262.87,193.62z"/>
			</g>
		</g>
		<g>
			<g>
				<path class="st1" d="M279.46,190.86c-0.32,0-0.63-0.17-0.77-0.47c-0.19-0.4,0-0.87,0.43-1.04l4.01-1.68
					c0.43-0.18,0.93,0,1.12,0.4c0.19,0.4,0,0.87-0.43,1.04l-4.01,1.68C279.7,190.84,279.58,190.86,279.46,190.86z"/>
			</g>
		</g>
		<g>
			<g>
				<path class="st1" d="M235.5,204.83c-0.1,0-0.2-0.02-0.31-0.05c-0.44-0.16-0.65-0.61-0.49-1.02c0.46-1.1,0.38-2.36,0.31-3.69
					c-0.09-1.56-0.18-3.16,0.58-4.66c0.25-0.5,0.58-0.93,0.89-1.35c0.13-0.18,0.26-0.35,0.39-0.53c1.9-2.74,2.04-6.28,2.16-9.4
					c0.02-0.44,0.44-0.8,0.88-0.76c0.47,0.02,0.83,0.38,0.82,0.82c-0.12,3.16-0.28,7.09-2.43,10.2c-0.14,0.2-0.28,0.39-0.42,0.58
					c-0.29,0.38-0.55,0.74-0.75,1.12c-0.58,1.13-0.5,2.48-0.42,3.9c0.08,1.44,0.16,2.93-0.42,4.34
					C236.16,204.64,235.84,204.83,235.5,204.83z"/>
			</g>
		</g>
		<g>
			<g>
				<path class="st1" d="M229.59,194.88c-0.4,0-0.75-0.26-0.83-0.64c-0.43-2.1,0.2-4.33,1.69-5.95c0.21-0.23,0.44-0.45,0.66-0.66
					c0.31-0.3,0.61-0.58,0.84-0.89c0.39-0.52,0.64-1.17,0.85-1.75c1.44-4.07,1.99-8.47,1.61-12.74c-0.19-0.05-0.36-0.15-0.48-0.31
					c-0.27-0.36-0.17-0.85,0.21-1.1c0.33-0.21,0.74-0.25,1.1-0.09c0.53,0.23,0.81,0.81,0.86,1.28c0.41,4.51-0.17,9.16-1.69,13.46
					c-0.24,0.68-0.54,1.47-1.07,2.16c-0.31,0.41-0.67,0.75-1.01,1.08c-0.2,0.19-0.4,0.38-0.59,0.59c-1.14,1.25-1.65,3.02-1.32,4.63
					c0.09,0.43-0.21,0.84-0.67,0.93C229.69,194.87,229.64,194.88,229.59,194.88z"/>
			</g>
		</g>
		<g>
			<g>
				<path class="st1" d="M223.82,185.99c-0.4,0-0.75-0.26-0.83-0.64c-0.46-2.21,0.02-4.41,0.49-6.54l0.15-0.67
					c0.97-4.52,1.42-9.16,1.35-13.77c-0.01-0.71-0.08-1.48-0.53-1.79c-0.37-0.26-0.45-0.76-0.17-1.11c0.28-0.35,0.81-0.42,1.19-0.16
					c1.03,0.73,1.19,1.94,1.2,3.04c0.07,4.72-0.4,9.47-1.39,14.1l-0.15,0.68c-0.43,1.97-0.88,4.02-0.48,5.92
					c0.09,0.43-0.21,0.84-0.67,0.93C223.92,185.99,223.87,185.99,223.82,185.99z"/>
			</g>
		</g>
		<g>
			<g>
				<path class="st1" d="M216.1,175.81c-0.32,0-0.62-0.17-0.77-0.45c-1.3-2.55-1.24-5.69,0.15-8.19c0.06-0.11,0.13-0.22,0.19-0.34
					c0.17-0.29,0.32-0.56,0.42-0.82c0.13-0.39,0.16-0.85,0.18-1.3l0.3-5.76c0.01-0.2-0.01-0.34-0.04-0.42
					c-0.37-0.12-0.61-0.48-0.55-0.86c0.07-0.43,0.49-0.74,0.96-0.67c0.69,0.09,1.4,0.67,1.32,2.03l-0.3,5.76
					c-0.03,0.52-0.06,1.12-0.26,1.71c-0.14,0.4-0.34,0.75-0.54,1.09l-0.17,0.31c-1.15,2.08-1.2,4.68-0.13,6.79
					c0.2,0.39,0.02,0.87-0.4,1.05C216.35,175.79,216.22,175.81,216.1,175.81z"/>
			</g>
		</g>
		<g>
			<g>
				<path class="st1" d="M207.92,165.27c-0.44,0-0.81-0.31-0.84-0.72c-0.26-2.79-0.04-5.59,0.65-8.32c0.26-1,0.42-2.26-0.23-2.56
					c-0.42-0.19-0.59-0.67-0.38-1.06s0.72-0.55,1.14-0.36c2,0.93,1.34,3.5,1.13,4.35c-0.65,2.56-0.86,5.19-0.61,7.82
					c0.04,0.43-0.3,0.82-0.77,0.86C207.96,165.27,207.94,165.27,207.92,165.27z"/>
			</g>
		</g>
		<g>
			<g>
				<path class="st1" d="M202.67,157.86c-0.02,0-0.04,0-0.05,0c-3.46-0.2-6.9-0.76-10.23-1.65c-0.45-0.12-0.71-0.56-0.58-0.98
					c0.13-0.42,0.6-0.66,1.05-0.54c3.21,0.86,6.53,1.4,9.87,1.59c0.47,0.03,0.82,0.4,0.79,0.84
					C203.49,157.54,203.12,157.86,202.67,157.86z"/>
			</g>
		</g>
		<g>
			<g>
				<path class="st1" d="M209.74,169.53c-2.43,0-4.4-1.37-6.31-2.7c-1.68-1.17-3.26-2.27-5.08-2.46c-1.04-0.11-2.11,0.1-3.24,0.32
					c-0.8,0.16-1.63,0.32-2.48,0.37c-0.48,0.02-0.87-0.3-0.9-0.74c-0.03-0.44,0.32-0.81,0.79-0.84c0.73-0.04,1.47-0.19,2.24-0.34
					c1.21-0.24,2.46-0.48,3.77-0.35c2.27,0.23,4.12,1.52,5.91,2.76c1.87,1.3,3.63,2.53,5.66,2.37c0.45-0.04,0.88,0.29,0.92,0.72
					c0.04,0.43-0.31,0.82-0.77,0.85C210.08,169.52,209.9,169.53,209.74,169.53z"/>
			</g>
		</g>
		<g>
			<g>
				<path class="st1" d="M215.78,182.43c-0.56,0-1.11-0.03-1.67-0.1c-2-0.25-3.86-0.95-5.66-1.62c-1.56-0.58-3.04-1.14-4.6-1.42
					c-1.18-0.22-2.47-0.29-3.71-0.35c-2.49-0.13-5.06-0.27-7.27-1.58c-0.39-0.23-0.51-0.72-0.26-1.09c0.25-0.37,0.78-0.48,1.17-0.24
					c1.83,1.09,4.08,1.21,6.46,1.33c1.3,0.07,2.64,0.14,3.94,0.38c1.71,0.32,3.34,0.92,4.9,1.51c1.78,0.67,3.47,1.3,5.26,1.52
					c1.81,0.23,3.67,0.02,5.37-0.6c0.43-0.16,0.93,0.04,1.1,0.45s-0.04,0.87-0.48,1.02C218.88,182.16,217.33,182.43,215.78,182.43z"
					/>
			</g>
		</g>
		<g>
			<g>
				<path class="st1" d="M228.68,194.52c-0.08,0-0.15-0.01-0.23-0.03c-5.34-1.39-10.84-2.41-16.34-3.03l-0.94-0.1
					c-3.36-0.37-6.83-0.75-9.83-2.37c-0.3-0.16-0.61-0.34-0.91-0.52c-1.19-0.69-2.3-1.35-3.44-1.19c-0.47,0.06-0.89-0.23-0.96-0.67
					c-0.07-0.43,0.25-0.83,0.71-0.9c1.74-0.24,3.25,0.64,4.58,1.42c0.29,0.17,0.58,0.34,0.86,0.49c2.7,1.46,5.99,1.82,9.18,2.16
					l0.95,0.1c5.59,0.63,11.17,1.67,16.59,3.08c0.45,0.12,0.71,0.55,0.59,0.97C229.39,194.3,229.05,194.52,228.68,194.52z"/>
			</g>
		</g>
		<g>
			<g>
				<path class="st1" d="M236.16,207.81c-0.38,0-0.72-0.23-0.82-0.59c-1.03-3.67-5.28-4.69-9.38-5.68
					c-1.04-0.25-2.02-0.49-2.94-0.76c-1.31-0.39-2.61-0.78-3.89-1.08c-3.97-0.92-8.2-1.03-12.23-0.33c-0.46,0.07-0.9-0.2-0.99-0.63
					c-0.09-0.43,0.22-0.84,0.68-0.92c4.26-0.74,8.74-0.62,12.95,0.35c1.34,0.31,2.67,0.71,3.95,1.09c0.93,0.28,1.88,0.51,2.9,0.75
					c4.36,1.05,9.31,2.24,10.59,6.81c0.12,0.42-0.15,0.85-0.6,0.97C236.31,207.81,236.23,207.81,236.16,207.81z"/>
			</g>
		</g>
	</g>
	<g>
		<g>
			<g>
				<ellipse class="st1" cx="293.92" cy="339.24" rx="42.28" ry="38.78"/>
			</g>
			<g>
				<path d="M293.92,383.95c-26.82,0-48.64-20.06-48.64-44.71c0-24.65,21.82-44.71,48.64-44.71s48.64,20.06,48.64,44.71
					C342.55,363.89,320.73,383.95,293.92,383.95z M293.92,306.39c-19.81,0-35.92,14.73-35.92,32.85c0,18.11,16.11,32.85,35.92,32.85
					c19.81,0,35.92-14.73,35.92-32.85C329.83,321.13,313.72,306.39,293.92,306.39z"/>
			</g>
		</g>
		<g>
			<g>
				<rect x="290.08" y="290.29" width="9.1" height="9.04"/>
			</g>
			<g>
				<path d="M300.87,300.91h-12.49V288.7h12.49V300.91z M291.77,297.75h5.71v-5.88h-5.71V297.75z"/>
			</g>
		</g>
		<g>
			<g>
				<polygon points="317.47,305.27 309.12,301.69 312.72,293.39 321.07,296.97 				"/>
			</g>
			<g>
				<path d="M318.38,307.4l-11.44-4.9l4.87-11.24l11.44,4.9L318.38,307.4z M311.3,300.89l5.27,2.26l2.33-5.37l-5.27-2.26
					L311.3,300.89z"/>
			</g>
		</g>
		<g>
			<g>
				<polygon points="337.45,310.64 331.02,317.03 324.58,310.64 331.02,304.24 				"/>
			</g>
			<g>
				<path d="M331.02,319.34l-8.76-8.71l8.76-8.71l8.76,8.71L331.02,319.34z M326.91,310.64l4.11,4.08l4.11-4.08l-4.11-4.08
					L326.91,310.64z"/>
			</g>
		</g>
		<g>
			<g>
				<polygon points="347.6,329.94 338.89,332.55 336.27,323.89 344.98,321.28 				"/>
			</g>
			<g>
				<path d="M337.74,334.56l-3.55-11.71l11.94-3.58l3.55,11.71L337.74,334.56z M338.34,324.93l1.7,5.61l5.48-1.64l-1.7-5.61
					L338.34,324.93z"/>
			</g>
		</g>
		<g>
			<g>
				<polygon points="347.76,351.37 338.72,350.34 339.75,341.36 348.79,342.38 				"/>
			</g>
			<g>
				<path d="M349.26,353.13l-12.41-1.4l1.39-12.13l12.41,1.4L349.26,353.13z M340.58,348.96l5.67,0.64l0.67-5.84l-5.67-0.64
					L340.58,348.96z"/>
			</g>
		</g>
		<g>
			<g>
				<polygon points="338.24,370.71 330.63,365.75 335.63,358.19 343.23,363.16 				"/>
			</g>
			<g>
				<path d="M338.74,372.97l-10.39-6.78l6.78-10.26l10.39,6.78L338.74,372.97z M332.91,365.31l4.82,3.15l3.21-4.86l-4.82-3.15
					L332.91,365.31z"/>
			</g>
		</g>
		<g>
			<g>
				<polygon points="321.51,384.28 316.53,376.71 324.15,371.76 329.13,379.33 				"/>
			</g>
			<g>
				<path d="M321.01,386.54l-6.76-10.27l10.4-6.76l6.76,10.27L321.01,386.54z M318.81,377.15l3.2,4.87l4.83-3.14l-3.2-4.87
					L318.81,377.15z"/>
			</g>
		</g>
		<g>
			<g>
				<polygon points="308.08,388.53 299.02,389.94 297.62,381.03 306.69,379.63 				"/>
			</g>
			<g>
				<path d="M297.59,391.76l-1.89-12.04l12.41-1.92l1.89,12.04L297.59,391.76z M299.54,382.34l0.91,5.77l5.72-0.89l-0.9-5.77
					L299.54,382.34z"/>
			</g>
		</g>
		<g>
			<g>
				<polygon points="284.87,388.87 275.95,386.74 278.07,377.98 286.99,380.11 				"/>
			</g>
			<g>
				<path d="M286.14,390.81l-12.21-2.91l2.86-11.85l12.21,2.91L286.14,390.81z M277.97,385.59l5.63,1.34l1.37-5.68l-5.64-1.34
					L277.97,385.59z"/>
			</g>
		</g>
		<g>
			<g>
				<polygon points="271.49,375.37 265.84,382.56 258.7,377.01 264.35,369.82 				"/>
			</g>
			<g>
				<path d="M266.14,384.85l-9.75-7.58l7.66-9.74l9.75,7.58L266.14,384.85z M261.01,376.75l4.53,3.52l3.64-4.63l-4.53-3.52
					L261.01,376.75z"/>
			</g>
		</g>
		<g>
			<g>
				<polygon points="258.6,364.24 250.65,368.81 246.12,361 254.06,356.44 				"/>
			</g>
			<g>
				<path d="M250.01,371.03l-6.15-10.59l10.84-6.22l6.15,10.59L250.01,371.03z M248.37,361.56l2.91,5.02l5.05-2.9l-2.91-5.02
					L248.37,361.56z"/>
			</g>
		</g>
		<g>
			<g>
				<polygon points="250.62,347.79 242.39,348.74 241.42,340.82 249.64,339.86 				"/>
			</g>
			<g>
				<path d="M240.9,350.51l-1.36-11.07l11.59-1.35l1.36,11.07L240.9,350.51z M243.29,342.19l0.59,4.78l4.86-0.57l-0.59-4.78
					L243.29,342.19z"/>
			</g>
		</g>
		<g>
			<g>
				<polygon points="250.68,333.54 242,330.59 244.93,322.06 253.61,325.01 				"/>
			</g>
			<g>
				<path d="M251.76,335.59l-11.87-4.03l3.96-11.54l11.87,4.03L251.76,335.59z M244.11,329.63l5.49,1.87l1.89-5.51l-5.49-1.87
					L244.11,329.63z"/>
			</g>
		</g>
		<g>
			<g>
				<polygon points="280.16,301.62 271.86,305.3 268.15,297.04 276.45,293.36 				"/>
			</g>
			<g>
				<path d="M270.98,307.44l-5.02-11.18l11.37-5.05l5.02,11.18L270.98,307.44z M270.34,297.83l2.4,5.34l5.24-2.33l-2.4-5.34
					L270.34,297.83z"/>
			</g>
		</g>
		<g>
			<g>
				<polygon points="264.67,310.64 258.23,317.03 251.8,310.64 258.23,304.24 				"/>
			</g>
			<g>
				<path d="M258.23,319.34l-8.76-8.71l8.76-8.71l8.76,8.71L258.23,319.34z M254.13,310.64l4.11,4.08l4.11-4.08l-4.11-4.08
					L254.13,310.64z"/>
			</g>
		</g>
		<g>
			<g>
				<ellipse class="st2" cx="199.55" cy="331.9" rx="34.66" ry="32.17"/>
			</g>
			<g>
				<path d="M199.55,368.03c-21.45,0-38.9-16.21-38.9-36.12s17.45-36.12,38.9-36.12s38.9,16.21,38.9,36.12
					S220.99,368.03,199.55,368.03z M199.55,303.69c-16.77,0-30.42,12.66-30.42,28.22s13.65,28.22,30.42,28.22
					s30.42-12.66,30.42-28.22S216.32,303.69,199.55,303.69z"/>
			</g>
		</g>
		<g>
			<g>
				<rect x="195.55" y="291.51" width="7.26" height="7.31"/>
			</g>
			<g>
				<path d="M204.51,300.4h-10.65v-10.48h10.65V300.4z M197.25,297.24h3.87v-4.15h-3.87V297.24z"/>
			</g>
		</g>
		<g>
			<g>
				<polygon points="217.41,303.62 210.75,300.73 213.62,294.02 220.28,296.91 				"/>
			</g>
			<g>
				<path d="M218.32,305.76l-9.75-4.23l4.13-9.66l9.75,4.23L218.32,305.76z M212.91,299.93l3.59,1.56l1.61-3.77l-3.59-1.56
					L212.91,299.93z"/>
			</g>
		</g>
		<g>
			<g>
				<polygon points="233.35,307.96 228.22,313.13 223.08,307.96 228.22,302.79 				"/>
			</g>
			<g>
				<path d="M228.22,315.46l-7.44-7.5l7.44-7.5l7.44,7.5L228.22,315.46z M225.39,307.96l2.82,2.84l2.82-2.84l-2.82-2.84
					L225.39,307.96z"/>
			</g>
		</g>
		<g>
			<g>
				<polygon points="241.45,323.56 234.5,325.67 232.4,318.67 239.35,316.56 				"/>
			</g>
			<g>
				<path d="M233.34,327.69l-3.01-10.05l10.18-3.09l3.01,10.05L233.34,327.69z M234.47,319.71l1.18,3.95l3.72-1.13l-1.18-3.95
					L234.47,319.71z"/>
			</g>
		</g>
		<g>
			<g>
				<polygon points="242.01,340.06 235.95,339.3 236.64,332.62 242.7,333.38 				"/>
			</g>
			<g>
				<path d="M243.53,341.85l-9.42-1.18l1.01-9.83l9.42,1.18L243.53,341.85z M237.8,337.94l2.69,0.34l0.36-3.53l-2.69-0.34
					L237.8,337.94z"/>
			</g>
		</g>
		<g>
			<g>
				<polygon points="233.97,356.52 227.91,352.51 231.89,346.4 237.96,350.41 				"/>
			</g>
			<g>
				<path d="M234.48,358.8l-8.84-5.85l5.75-8.82l8.84,5.85L234.48,358.8z M230.18,352.07l3.29,2.18l2.22-3.4l-3.29-2.18
					L230.18,352.07z"/>
			</g>
		</g>
		<g>
			<g>
				<polygon points="220.63,367.49 216.66,361.37 222.74,357.37 226.71,363.49 				"/>
			</g>
			<g>
				<path d="M220.12,369.76l-5.73-8.83l8.85-5.83l5.73,8.83L220.12,369.76z M218.93,361.81l2.21,3.41l3.3-2.17l-2.21-3.41
					L218.93,361.81z"/>
			</g>
		</g>
		<g>
			<g>
				<polygon points="201.1,372.21 200.59,365.15 208.03,363.97 208.54,371.03 				"/>
			</g>
			<g>
				<path d="M199.53,374.06l-0.73-10.23l10.8-1.72l0.73,10.23L199.53,374.06z M202.39,366.47l0.28,3.88l4.08-0.65l-0.28-3.88
					L202.39,366.47z"/>
			</g>
		</g>
		<g>
			<g>
				<polygon points="191.4,371.2 184.28,369.48 185.97,362.4 193.09,364.12 				"/>
			</g>
			<g>
				<path d="M192.68,373.14l-10.4-2.52l2.42-10.17l10.4,2.51L192.68,373.14z M186.3,368.33l3.83,0.93l0.95-3.99l-3.83-0.93
					L186.3,368.33z"/>
			</g>
		</g>
		<g>
			<g>
				<polygon points="180.73,360.29 176.22,366.1 170.52,361.61 175.03,355.8 				"/>
			</g>
			<g>
				<path d="M176.52,368.41l-8.3-6.53l6.5-8.38l8.3,6.53L176.52,368.41z M172.82,361.35l3.1,2.44l2.51-3.24l-3.1-2.44L172.82,361.35
					z"/>
			</g>
		</g>
		<g>
			<g>
				<polygon points="170.44,351.29 164.1,354.98 160.48,348.67 166.82,344.99 				"/>
			</g>
			<g>
				<path d="M163.46,357.22l-5.22-9.11l9.22-5.36l5.22,9.1L163.46,357.22z M162.73,349.23l2.01,3.51l3.46-2.01l-2.01-3.51
					L162.73,349.23z"/>
			</g>
		</g>
		<g>
			<g>
				<polygon points="164.44,338.91 157.17,339.78 156.32,332.55 163.59,331.67 				"/>
			</g>
			<g>
				<path d="M155.68,341.55l-1.23-10.38l10.63-1.28l1.23,10.38L155.68,341.55z M158.19,333.92l0.48,4.09l3.9-0.47l-0.48-4.09
					L158.19,333.92z"/>
			</g>
		</g>
		<g>
			<g>
				<polygon points="164.13,326.47 157.2,324.09 159.54,317.2 166.46,319.58 				"/>
			</g>
			<g>
				<path d="M165.21,328.53l-10.11-3.48l3.36-9.91l10.11,3.48L165.21,328.53z M159.3,323.13l3.74,1.29l1.31-3.87l-3.74-1.29
					L159.3,323.13z"/>
			</g>
		</g>
		<g>
			<g>
				<polygon points="187.65,300.67 181.02,303.65 178.06,296.97 184.69,293.99 				"/>
			</g>
			<g>
				<path d="M180.14,305.8l-4.26-9.6l9.69-4.36l4.26,9.6L180.14,305.8z M180.24,297.75l1.66,3.75l3.57-1.6l-1.66-3.75L180.24,297.75
					z"/>
			</g>
		</g>
		<g>
			<g>
				<polygon points="175.28,307.96 170.15,313.13 165.02,307.96 170.15,302.79 				"/>
			</g>
			<g>
				<path d="M170.15,315.46l-7.44-7.5l7.44-7.5l7.44,7.5L170.15,315.46z M167.33,307.96l2.82,2.84l2.82-2.84l-2.82-2.84
					L167.33,307.96z"/>
			</g>
		</g>
		<g>
			<g>
				<path d="M199.36,344.1c-7.4,0-13.42-5.42-13.42-12.09s6.02-12.09,13.42-12.09c7.4,0,13.42,5.42,13.42,12.09
					S206.75,344.1,199.36,344.1z M199.36,326.24c-3.66,0-6.63,2.59-6.63,5.76s2.98,5.76,6.63,5.76s6.63-2.59,6.63-5.76
					S203.01,326.24,199.36,326.24z"/>
			</g>
		</g>
		<g>
			<g>
				<path d="M295.08,353.31c-7.25,0-13.14-5.76-13.14-12.83c0-7.07,5.9-12.83,13.14-12.83c7.25,0,13.14,5.76,13.14,12.83
					C308.22,347.56,302.33,353.31,295.08,353.31z M295.08,334.77c-3.04,0-5.51,2.56-5.51,5.71s2.47,5.71,5.51,5.71
					c3.04,0,5.51-2.56,5.51-5.71S298.12,334.77,295.08,334.77z"/>
			</g>
		</g>
		<g>
			<g>
				<path d="M294.62,326.63c-5.91,0-10.72-4.58-10.72-10.22c0-5.63,4.81-10.22,10.72-10.22c5.91,0,10.72,4.58,10.72,10.22
					C305.34,322.04,300.53,326.63,294.62,326.63z M294.62,308.56c-4.51,0-8.18,3.52-8.18,7.84s3.67,7.84,8.18,7.84
					c4.51,0,8.18-3.52,8.18-7.84S299.13,308.56,294.62,308.56z"/>
			</g>
		</g>
		<g>
			<g>
				<path d="M320.57,350.99c-6.33,0-11.49-4.9-11.49-10.92c0-6.02,5.15-10.92,11.49-10.92s11.49,4.9,11.49,10.92
					C332.06,346.09,326.91,350.99,320.57,350.99z M320.57,331.52c-4.93,0-8.94,3.84-8.94,8.55c0,4.72,4.01,8.55,8.94,8.55
					s8.94-3.84,8.94-8.55C329.52,335.35,325.51,331.52,320.57,331.52z"/>
			</g>
		</g>
		<g>
			<g>
				<path d="M295,374.46c-5.97,0-10.82-4.68-10.82-10.43c0-5.75,4.85-10.43,10.82-10.43c5.97,0,10.82,4.68,10.82,10.43
					C305.82,369.78,300.96,374.46,295,374.46z M295,355.97c-4.56,0-8.28,3.61-8.28,8.06c0,4.44,3.71,8.06,8.28,8.06
					c4.56,0,8.28-3.61,8.28-8.06C303.27,359.58,299.56,355.97,295,355.97z"/>
			</g>
		</g>
		<g>
			<g>
				<path d="M268.2,351.74c-6.14,0-11.13-4.79-11.13-10.68c0-5.89,4.99-10.69,11.13-10.69c6.14,0,11.13,4.79,11.13,10.69
					C279.34,346.94,274.34,351.74,268.2,351.74z M268.2,332.74c-4.74,0-8.59,3.73-8.59,8.31c0,4.58,3.85,8.31,8.59,8.31
					s8.59-3.73,8.59-8.31C276.79,336.47,272.94,332.74,268.2,332.74z"/>
			</g>
		</g>
	</g>
	<g>
		<path class="st1" d="M427.84,215.98C412.62,131.84,339.05,70.76,252.9,70.76v-55c54.88,0,108.16,19.38,150.04,54.58
			c41.4,34.79,69.46,83.04,79.02,135.86L427.84,215.98z"/>
	</g>
	<g>
		<path class="st0" d="M252.9,479.26c-62.14,0-120.58-24.09-164.53-67.83c-43.99-43.78-68.22-101.99-68.22-163.92
			S44.38,127.37,88.37,83.59c43.96-43.74,102.39-67.83,164.53-67.83v55c-98.01,0-177.75,79.29-177.75,176.75
			s79.74,176.75,177.75,176.75s177.75-79.29,177.75-176.75c0-10.59-0.95-21.2-2.81-31.53l54.12-9.79
			c2.45,13.55,3.69,27.45,3.69,41.32c0,61.93-24.23,120.14-68.22,163.92C373.48,455.17,315.05,479.26,252.9,479.26z"/>
	</g>
</g>
</svg>
