<?xml version="1.0" encoding="utf-8"?>
<!-- Generator: Adobe Illustrator 26.0.1, SVG Export Plug-In . SVG Version: 6.00 Build 0)  -->
<svg version="1.1" id="Lager_1" xmlns="http://www.w3.org/2000/svg" xmlns:xlink="http://www.w3.org/1999/xlink" x="0px" y="0px"
	 viewBox="0 0 506 492" style="enable-background:new 0 0 506 492;" xml:space="preserve">
<style type="text/css">
	.st0{fill:#00BE5F;}
	.st1{fill:#2819FF;}
	.st2{fill:#00F0AF;}
</style>
<g>
	<g>
		<g>
			<g>
				<g>
					<g>
						<g>
							<path class="st0" d="M260.42,329.47c-8.22-21.33-6.7-32.07-3.39-37.96c0.7-1.25,2.55-4.17,4.24-8.7
								c0.55-1.48,2.24-6.2,3.39-17.4c0.45-4.33,0.97-9.38,0.85-15.82c-0.26-13.78-3.08-14.35-3.39-25.31
								c-0.21-7.32-0.53-18.69,6.78-28.47c2.88-3.85,6.31-6.61,11.87-11.07c6.41-5.15,7.72-5.05,14.41-10.28
								c6.8-5.31,11.19-8.75,14.41-14.24c3.52-6,3.96-11.61,4.24-15.82c2.99-44.78,3.11-48.44,0-49.83
								c-6.62-2.96-19.01,8.4-28.83,17.4c-8.34,7.65-13.24,14.5-16.96,19.77c-6.63,9.39-12.34,17.67-13.57,28.47
								c-0.62,5.43-0.07,11.2,0,11.86c0.33,3.34,0.74,7.18,2.54,11.86c1.6,4.17,2.17,3.44,2.54,5.54c0.9,5.04-2.78,6.91-5.09,15.82
								c-0.98,3.76-0.82,5.37-1.7,5.54c-1.94,0.38-5.96-6.89-7.63-14.24c-2.03-8.9,0.99-10.9,0-20.56
								c-0.46-4.52-1.35-13.26-7.63-20.56c-1.19-1.39-2.75-2.92-19.5-11.86c-13.92-7.43-15.42-7.74-16.96-7.12
								c-6.78,2.76-5.3,19.99-2.54,30.05c1.74,6.38,4.05,14.83,11.87,20.56c7.47,5.48,16.96,7.91,16.96,7.91
								c4.4,1.13,6.67,1.05,9.33,3.16c3.06,2.44,2.58,4.54,5.94,11.07c3.48,6.76,4.79,6.05,6.78,11.07
								c1.66,4.19,0.77,4.74,2.54,12.65c1.87,8.33,3.01,8.41,3.39,12.65c0.48,5.26-1.22,5.86-3.39,15.82
								c-2.09,9.61-0.89,10.74-3.39,21.35c-0.57,2.43-1.29,5.46-2.54,9.49c-2.2,7.08-3.6,9.29-4.24,14.24c-0.36,2.77-0.76,5.8,0,8.7
								C244.25,324.76,258.03,328.8,260.42,329.47z"/>
						</g>
					</g>
					<g>
						<g>
							<path class="st0" d="M263.16,331.89l-3.22-0.9c-4-1.12-17.25-5.53-19.81-15.38c-0.83-3.18-0.41-6.41-0.04-9.26
								c0.44-3.37,1.22-5.56,2.3-8.58c0.58-1.62,1.24-3.46,2-5.91c1.24-3.98,1.95-6.97,2.51-9.38c1.31-5.53,1.58-8.36,1.87-11.36
								c0.25-2.64,0.52-5.37,1.52-9.98c0.9-4.14,1.74-6.73,2.35-8.62c0.87-2.7,1.27-3.94,1.02-6.75c-0.18-1.94-0.51-2.89-1.07-4.45
								c-0.57-1.59-1.34-3.78-2.29-8.01c-0.82-3.67-1.09-5.83-1.28-7.41c-0.23-1.88-0.36-2.91-1.19-5.02
								c-0.93-2.34-1.66-3.27-2.66-4.56c-1.02-1.3-2.28-2.92-4.06-6.38c-1.32-2.57-2.05-4.45-2.64-5.96
								c-0.9-2.31-1.31-3.36-2.86-4.59c-1.64-1.31-3.1-1.61-5.52-2.12c-0.92-0.19-1.96-0.41-3.16-0.72c-0.4-0.1-9.9-2.58-17.56-8.19
								c-8.27-6.07-10.7-14.94-12.47-21.42c-1.94-7.11-5.47-28.24,3.51-31.89c2.37-0.97,4.09-0.49,18.48,7.19
								c17.48,9.33,18.69,10.75,19.98,12.25c6.6,7.68,7.54,16.95,8,21.4c0.47,4.6,0.06,7.57-0.3,10.2
								c-0.41,3.02-0.77,5.62,0.27,10.19c1.25,5.5,3.71,10.35,5.24,12.24c0.02-0.09,0.04-0.18,0.05-0.28
								c0.16-0.82,0.37-1.93,0.73-3.31c1.06-4.1,2.4-6.75,3.47-8.89c1.25-2.48,2-3.98,1.59-6.3c-0.13-0.72-0.23-0.88-0.56-1.39
								c-0.41-0.63-1.03-1.59-1.91-3.87c-1.91-4.97-2.31-9.01-2.64-12.25c-0.11-1.08-0.62-6.74,0-12.18
								c1.29-11.4,7.39-20.03,13.84-29.17c3.4-4.82,8.54-12.11,17.19-20.03c10.81-9.91,23.05-21.13,30.75-17.7
								c4.26,1.9,4.07,4.69,0.96,51.35c-0.27,4-0.67,10.04-4.44,16.48c-3.37,5.75-7.92,9.31-14.81,14.69
								c-3.31,2.59-5.33,3.89-7.28,5.16c-2,1.3-3.9,2.52-7.12,5.11c-5.5,4.42-8.83,7.09-11.59,10.78c-7,9.35-6.68,20.29-6.48,27.53
								c0.14,4.95,0.81,7.71,1.52,10.63c0.85,3.52,1.74,7.17,1.88,14.69c0.12,6.53-0.4,11.56-0.86,16
								c-0.8,7.76-1.97,13.74-3.48,17.77c-1.51,4.04-3.13,6.83-4,8.33c-0.13,0.22-0.24,0.42-0.34,0.58
								c-4.2,7.46-3.03,19.81,3.49,36.69L263.16,331.89z M202.09,137.89c-0.14,0-0.25,0.02-0.34,0.06c-4.93,2-4.79,16.48-1.58,28.21
								c1.74,6.37,3.91,14.3,11.28,19.71c7.1,5.21,16.27,7.6,16.36,7.63c1.12,0.29,2.12,0.5,3,0.68c2.62,0.55,4.69,0.99,6.97,2.8
								c2.23,1.77,2.87,3.42,3.85,5.92c0.56,1.45,1.27,3.25,2.52,5.67c1.64,3.2,2.76,4.62,3.74,5.88c1.08,1.38,2.01,2.57,3.1,5.33
								c0.98,2.46,1.15,3.84,1.38,5.76c0.2,1.6,0.44,3.59,1.23,7.12c0.91,4.05,1.62,6.05,2.19,7.66c0.59,1.66,1.02,2.87,1.23,5.18
								c0.31,3.41-0.24,5.11-1.15,7.93c-0.62,1.93-1.4,4.34-2.27,8.34c-0.97,4.43-1.21,6.96-1.47,9.63
								c-0.29,2.97-0.58,6.03-1.93,11.75c-0.58,2.46-1.3,5.51-2.57,9.59c-0.78,2.5-1.45,4.37-2.04,6.02
								c-1.05,2.95-1.75,4.91-2.15,7.96c-0.35,2.71-0.72,5.51-0.04,8.14c1.68,6.45,9.33,10.24,14.25,12.04
								c-5.89-16.39-6.59-28.23-2.14-36.13c0.1-0.17,0.22-0.38,0.36-0.62c0.83-1.42,2.36-4.07,3.78-7.86
								c1.77-4.73,2.77-11.87,3.3-17.03c0.45-4.35,0.96-9.29,0.84-15.64c-0.13-7.2-0.98-10.68-1.79-14.05
								c-0.75-3.08-1.45-5.98-1.6-11.24c-0.22-7.65-0.55-19.21,7.09-29.42c3-4.02,6.45-6.78,12.16-11.37
								c3.36-2.7,5.32-3.97,7.4-5.31c1.89-1.22,3.84-2.48,7.03-4.98c6.83-5.33,10.95-8.56,14.02-13.78
								c3.41-5.82,3.77-11.22,4.03-15.16c2.55-38.28,3.08-47.36,0.96-48.3c-5.55-2.47-18.4,9.3-26.91,17.1
								c-8.39,7.69-13.21,14.52-16.73,19.51c-6.22,8.81-12.09,17.13-13.3,27.77c-0.6,5.25-0.06,10.92,0,11.55
								c0.3,3.07,0.68,6.88,2.45,11.48c0.77,1.99,1.26,2.75,1.62,3.31c0.48,0.74,0.78,1.27,1,2.5c0.59,3.29-0.5,5.44-1.87,8.16
								c-1.01,2-2.26,4.49-3.24,8.28c-0.33,1.29-0.53,2.31-0.69,3.13c-0.35,1.82-0.63,3.26-2.31,3.59
								c-4.46,0.86-8.63-11.02-9.64-15.46c-1.16-5.09-0.75-8.08-0.32-11.25c0.35-2.58,0.72-5.25,0.29-9.49
								c-0.46-4.47-1.3-12.78-7.27-19.72c-0.94-1.09-2.1-2.45-19.02-11.48C207.34,139.73,203.46,137.89,202.09,137.89z"/>
						</g>
					</g>
				</g>
				<g>
					<g>
						<g>
							<path class="st1" d="M266.78,189.88c-0.07,0-0.14-0.01-0.21-0.02c-0.45-0.11-0.73-0.54-0.61-0.96
								c1.76-6.47,4.06-12.89,6.82-19.09c2.23-5,4.62-9.46,13.61-24.6c4.6-7.74,6.85-11.41,8.34-13.83
								c1.37-2.24,2.13-3.47,3.52-5.93c5.36-9.43,10.19-19.51,14.37-29.96c0.16-0.41,0.65-0.62,1.09-0.46
								c0.44,0.15,0.66,0.61,0.5,1.02c-4.2,10.51-9.07,20.65-14.46,30.15c-1.41,2.48-2.17,3.72-3.55,5.97
								c-1.49,2.42-3.74,6.08-8.33,13.81c-9.5,16-11.5,19.89-13.53,24.44c-2.73,6.13-5,12.48-6.74,18.87
								C267.51,189.64,267.16,189.88,266.78,189.88z"/>
						</g>
					</g>
				</g>
				<g>
					<g>
						<g>
							<path class="st1" d="M240.92,193.44c-0.29,0-0.58-0.14-0.74-0.4c-2.42-3.95-4.98-7.94-7.61-11.83
								c-3.42-5.07-6.11-8.75-11.85-16.58c-2.4-3.27-3.84-5.21-5.03-6.8c-1.43-1.92-2.46-3.3-4.3-5.86
								c-3.21-4.46-6.35-8.99-9.34-13.47c-0.25-0.37-0.13-0.86,0.27-1.09c0.4-0.23,0.92-0.12,1.17,0.25
								c2.98,4.46,6.11,8.98,9.31,13.42c1.84,2.55,2.86,3.93,4.29,5.84c1.19,1.59,2.63,3.53,5.04,6.81
								c5.35,7.3,8.3,11.32,11.89,16.63c2.64,3.92,5.22,7.92,7.65,11.89c0.23,0.38,0.09,0.86-0.32,1.08
								C241.21,193.41,241.06,193.44,240.92,193.44z"/>
						</g>
					</g>
				</g>
				<g>
					<g>
						<g>
							<path class="st1" d="M267.26,189.3c-0.23,0-0.46-0.09-0.63-0.26c-0.31-0.33-0.28-0.83,0.06-1.12
								c3.4-2.84,7.18-5.28,11.23-7.25c2.06-1,4.31-1.92,6.76-1.81c0.47,0.02,0.83,0.39,0.81,0.82c-0.02,0.44-0.46,0.78-0.88,0.76
								c-2.06-0.08-4.04,0.74-5.9,1.64c-3.93,1.9-7.59,4.27-10.88,7.02C267.66,189.24,267.46,189.3,267.26,189.3z"/>
						</g>
					</g>
				</g>
				<g>
					<g>
						<g>
							<path class="st1" d="M272.63,174.74c-0.13,0-0.27-0.03-0.4-0.09c-0.41-0.21-0.57-0.69-0.35-1.07
								c2.61-4.55,7.87-7.67,13.4-7.94c1.28-0.06,2.56,0.02,3.8,0.09c1.6,0.1,3.11,0.19,4.6,0c2.77-0.35,5.22-1.63,7.82-2.99
								c1.7-0.89,3.46-1.8,5.32-2.45c0.44-0.15,0.93,0.06,1.09,0.47c0.16,0.41-0.06,0.87-0.5,1.02c-1.74,0.6-3.44,1.49-5.09,2.34
								c-2.62,1.37-5.33,2.78-8.42,3.17c-1.66,0.21-3.33,0.11-4.94,0.01c-1.24-0.08-2.42-0.15-3.59-0.09
								c-4.95,0.25-9.65,3.04-11.99,7.11C273.22,174.58,272.93,174.74,272.63,174.74z"/>
						</g>
					</g>
				</g>
				<g>
					<g>
						<g>
							<path class="st1" d="M280.47,157.71c-0.25,0-0.49-0.1-0.66-0.29c-0.3-0.34-0.25-0.84,0.12-1.11
								c4.21-3.22,8.96-5.68,14.12-7.29c0.84-0.26,1.75-0.5,2.73-0.51c0.37,0.01,0.72,0.05,1.06,0.09c0.34,0.04,0.66,0.09,0.98,0.08
								c0.68-0.02,1.39-0.28,2.07-0.53c3.54-1.31,7.94-2.94,10.44-6.1c0.28-0.35,0.81-0.43,1.19-0.17c0.38,0.26,0.46,0.76,0.18,1.11
								c-2.79,3.52-7.44,5.24-11.18,6.63c-0.78,0.29-1.68,0.62-2.66,0.64c-0.44,0.01-0.85-0.04-1.25-0.09
								c-0.3-0.04-0.59-0.07-0.86-0.08c-0.71,0-1.46,0.2-2.16,0.42c-4.97,1.55-9.54,3.91-13.58,7.01
								C280.85,157.65,280.66,157.71,280.47,157.71z"/>
						</g>
					</g>
				</g>
				<g>
					<g>
						<g>
							<path class="st1" d="M291.87,139.54c-0.13,0-0.27-0.03-0.39-0.09c-0.41-0.2-0.57-0.68-0.35-1.07
								c2.5-4.42,7.72-6.65,12.85-8.56c0.99-0.37,1.99-0.74,2.92-1.16c2.9-1.33,5.45-3.31,7.37-5.74c0.28-0.35,0.81-0.43,1.19-0.17
								c0.38,0.26,0.46,0.75,0.18,1.11c-2.08,2.64-4.84,4.79-7.99,6.23c-0.99,0.45-2.01,0.83-3,1.2c-5.07,1.89-9.78,3.9-12.02,7.84
								C292.47,139.39,292.18,139.54,291.87,139.54z"/>
						</g>
					</g>
				</g>
				<g>
					<g>
						<g>
							<path class="st1" d="M304.01,117.86c-0.11,0-0.21-0.02-0.32-0.06c-0.43-0.16-0.65-0.62-0.47-1.03
								c1.06-2.48,3.63-3.68,6.1-4.85c2.27-1.07,4.41-2.08,5.29-3.96c0.19-0.4,0.69-0.59,1.11-0.41c0.43,0.17,0.63,0.64,0.44,1.04
								c-1.11,2.41-3.64,3.59-6.08,4.74c-2.3,1.08-4.47,2.11-5.3,4.03C304.67,117.67,304.35,117.86,304.01,117.86z"/>
						</g>
					</g>
				</g>
				<g>
					<g>
						<g>
							<path class="st1" d="M304.71,113.48c-0.46,0-0.83-0.34-0.85-0.77c-0.13-3.73-1.52-7.33-2.87-10.82
								c-0.16-0.41,0.07-0.86,0.51-1.01c0.44-0.15,0.93,0.06,1.09,0.47c1.4,3.61,2.84,7.34,2.97,11.31c0.02,0.44-0.35,0.8-0.82,0.82
								C304.72,113.48,304.71,113.48,304.71,113.48z"/>
						</g>
					</g>
				</g>
				<g>
					<g>
						<g>
							<path class="st1" d="M297.02,128.52c-0.02,0-0.04,0-0.06,0c-0.47-0.03-0.82-0.41-0.79-0.84l0.38-5.21
								c0.03-0.4,0.06-0.82-0.07-1.12c-0.14-0.35-0.53-0.65-0.93-0.98l-0.2-0.16c-3.34-2.72-4.99-7.1-4.22-11.17
								c0.08-0.43,0.51-0.72,0.98-0.64c0.46,0.08,0.77,0.49,0.69,0.92c-0.67,3.53,0.77,7.34,3.66,9.71l0.19,0.15
								c0.52,0.42,1.11,0.89,1.41,1.61c0.26,0.63,0.21,1.28,0.17,1.79l-0.38,5.21C297.83,128.2,297.46,128.52,297.02,128.52z"/>
						</g>
					</g>
				</g>
				<g>
					<g>
						<g>
							<path class="st1" d="M289.32,142.69c-0.07,0-0.14-0.01-0.22-0.03c-0.93-0.23-1.63-1.01-1.91-2.15
								c-0.06-0.24-0.11-0.48-0.15-0.73c-0.07-0.42-0.14-0.81-0.31-1.12c-0.18-0.34-0.5-0.65-0.84-0.98l-0.18-0.17
								c-4.77-4.63-5.94-11.42-6.88-16.88c-0.07-0.43,0.24-0.84,0.7-0.91c0.46-0.07,0.9,0.22,0.97,0.65
								c1.11,6.43,2.36,12.08,6.43,16.03l0.17,0.16c0.4,0.38,0.85,0.82,1.15,1.38c0.28,0.52,0.37,1.08,0.46,1.56
								c0.04,0.21,0.07,0.42,0.13,0.62c0.13,0.53,0.41,0.91,0.7,0.98c0.45,0.11,0.72,0.54,0.6,0.97
								C290.04,142.46,289.69,142.69,289.32,142.69z"/>
						</g>
					</g>
				</g>
				<g>
					<g>
						<g>
							<path class="st1" d="M279.54,157.7c-0.34,0-0.66-0.19-0.79-0.51c-1.08-2.63-2.23-4.57-3.6-6.12
								c-0.34-0.38-0.7-0.74-1.05-1.11c-0.47-0.48-0.95-0.97-1.4-1.5c-3.66-4.38-3.78-10.53-3.86-15.03
								c-0.01-0.44,0.37-0.8,0.83-0.8c0.48-0.04,0.85,0.34,0.86,0.78c0.1,5.54,0.44,10.42,3.5,14.08c0.4,0.48,0.84,0.93,1.31,1.4
								c0.38,0.38,0.76,0.77,1.11,1.17c1.49,1.68,2.73,3.76,3.88,6.56c0.17,0.41-0.05,0.87-0.49,1.02
								C279.74,157.68,279.64,157.7,279.54,157.7z"/>
						</g>
					</g>
				</g>
				<g>
					<g>
						<g>
							<path class="st1" d="M273.57,170.33c-0.17,0-0.34-0.05-0.49-0.14c-1.3-0.85-1.67-2.27-2-3.52c-0.14-0.53-0.27-1.03-0.46-1.48
								c-0.61-1.45-1.93-2.53-3.34-3.67c-0.36-0.29-0.71-0.58-1.05-0.88c-3.34-2.88-5.81-6.73-6.94-10.84
								c-0.12-0.42,0.16-0.85,0.61-0.96c0.45-0.11,0.92,0.15,1.03,0.57c1.05,3.82,3.34,7.4,6.45,10.08
								c0.33,0.28,0.67,0.56,1.02,0.85c1.49,1.22,3.04,2.48,3.8,4.29c0.23,0.55,0.38,1.13,0.53,1.68c0.29,1.12,0.55,2.09,1.33,2.6
								c0.38,0.25,0.48,0.74,0.21,1.1C274.1,170.22,273.83,170.33,273.57,170.33z"/>
						</g>
					</g>
				</g>
				<g>
					<g>
						<g>
							<path class="st1" d="M268.62,182.98c-0.24,0-0.48-0.1-0.65-0.28l-5.28-5.89c-0.69-0.77-1.41-1.56-2.05-2.43
								c-1.58-2.14-2.57-4.56-3.53-6.89l-1.61-3.93c-0.17-0.41,0.05-0.87,0.49-1.02c0.43-0.16,0.93,0.05,1.09,0.46l1.61,3.92
								c0.92,2.25,1.88,4.57,3.34,6.56c0.59,0.81,1.28,1.57,1.95,2.31l5.28,5.89c0.3,0.34,0.25,0.83-0.11,1.11
								C269.01,182.92,268.82,182.98,268.62,182.98z"/>
						</g>
					</g>
				</g>
				<g>
					<g>
						<g>
							<path class="st1" d="M285.21,180.22c-0.32,0-0.63-0.17-0.77-0.47c-0.19-0.4,0-0.87,0.43-1.04l4.01-1.68
								c0.43-0.18,0.93,0,1.12,0.4c0.19,0.4,0,0.87-0.43,1.04l-4.01,1.68C285.45,180.2,285.33,180.22,285.21,180.22z"/>
						</g>
					</g>
				</g>
				<g>
					<g>
						<g>
							<path class="st1" d="M241.25,194.19c-0.1,0-0.2-0.02-0.31-0.05c-0.44-0.16-0.65-0.61-0.49-1.02c0.46-1.1,0.38-2.36,0.31-3.69
								c-0.09-1.56-0.18-3.16,0.58-4.66c0.25-0.5,0.58-0.93,0.89-1.35c0.13-0.18,0.26-0.35,0.39-0.53c1.9-2.74,2.04-6.28,2.16-9.4
								c0.02-0.44,0.44-0.8,0.88-0.76c0.47,0.02,0.83,0.38,0.82,0.82c-0.12,3.16-0.28,7.09-2.43,10.2c-0.14,0.2-0.28,0.39-0.42,0.58
								c-0.29,0.38-0.55,0.74-0.75,1.12c-0.58,1.13-0.5,2.48-0.42,3.9c0.08,1.44,0.16,2.93-0.42,4.34
								C241.91,194,241.59,194.19,241.25,194.19z"/>
						</g>
					</g>
				</g>
				<g>
					<g>
						<g>
							<path class="st1" d="M235.34,184.24c-0.4,0-0.75-0.26-0.83-0.64c-0.43-2.1,0.2-4.33,1.69-5.95c0.21-0.23,0.44-0.45,0.66-0.66
								c0.31-0.3,0.61-0.58,0.84-0.89c0.39-0.52,0.64-1.17,0.85-1.75c1.44-4.07,1.99-8.47,1.61-12.74
								c-0.19-0.05-0.36-0.15-0.48-0.31c-0.27-0.36-0.17-0.85,0.21-1.1c0.33-0.21,0.74-0.25,1.1-0.09c0.53,0.23,0.81,0.81,0.86,1.28
								c0.41,4.51-0.17,9.16-1.69,13.46c-0.24,0.68-0.54,1.47-1.07,2.16c-0.31,0.41-0.67,0.75-1.01,1.08
								c-0.2,0.19-0.4,0.38-0.59,0.59c-1.14,1.25-1.65,3.02-1.32,4.63c0.09,0.43-0.21,0.84-0.67,0.93
								C235.44,184.23,235.39,184.24,235.34,184.24z"/>
						</g>
					</g>
				</g>
				<g>
					<g>
						<g>
							<path class="st1" d="M229.57,175.35c-0.4,0-0.75-0.26-0.83-0.64c-0.46-2.21,0.02-4.41,0.49-6.54l0.15-0.67
								c0.97-4.52,1.42-9.16,1.35-13.77c-0.01-0.71-0.08-1.48-0.53-1.79c-0.37-0.26-0.45-0.76-0.17-1.11
								c0.28-0.35,0.81-0.42,1.19-0.16c1.03,0.73,1.19,1.94,1.2,3.04c0.07,4.72-0.4,9.47-1.39,14.1l-0.15,0.68
								c-0.43,1.97-0.88,4.02-0.48,5.92c0.09,0.43-0.21,0.84-0.67,0.93C229.67,175.35,229.62,175.35,229.57,175.35z"/>
						</g>
					</g>
				</g>
				<g>
					<g>
						<g>
							<path class="st1" d="M221.85,165.17c-0.32,0-0.62-0.17-0.77-0.45c-1.3-2.55-1.24-5.69,0.15-8.19
								c0.06-0.11,0.13-0.22,0.19-0.34c0.17-0.29,0.32-0.56,0.42-0.82c0.13-0.39,0.16-0.85,0.18-1.3l0.3-5.76
								c0.01-0.2-0.01-0.34-0.04-0.42c-0.37-0.12-0.61-0.48-0.55-0.86c0.07-0.43,0.49-0.74,0.96-0.67c0.69,0.09,1.4,0.67,1.32,2.03
								l-0.3,5.76c-0.03,0.52-0.06,1.12-0.26,1.71c-0.14,0.4-0.34,0.75-0.54,1.09l-0.17,0.31c-1.15,2.08-1.2,4.68-0.13,6.79
								c0.2,0.39,0.02,0.87-0.4,1.05C222.1,165.15,221.97,165.17,221.85,165.17z"/>
						</g>
					</g>
				</g>
				<g>
					<g>
						<g>
							<path class="st1" d="M213.67,154.63c-0.44,0-0.81-0.31-0.84-0.72c-0.26-2.79-0.04-5.59,0.65-8.32c0.26-1,0.42-2.26-0.23-2.56
								c-0.42-0.19-0.59-0.67-0.38-1.06s0.72-0.55,1.14-0.36c2,0.93,1.34,3.5,1.13,4.35c-0.65,2.56-0.86,5.19-0.61,7.82
								c0.04,0.43-0.3,0.82-0.77,0.86C213.71,154.63,213.69,154.63,213.67,154.63z"/>
						</g>
					</g>
				</g>
				<g>
					<g>
						<g>
							<path class="st1" d="M208.42,147.22c-0.02,0-0.04,0-0.05,0c-3.46-0.2-6.9-0.76-10.23-1.65c-0.45-0.12-0.71-0.56-0.58-0.98
								c0.13-0.42,0.6-0.66,1.05-0.54c3.21,0.86,6.53,1.4,9.87,1.59c0.47,0.03,0.82,0.4,0.79,0.84
								C209.24,146.9,208.87,147.22,208.42,147.22z"/>
						</g>
					</g>
				</g>
				<g>
					<g>
						<g>
							<path class="st1" d="M215.49,158.89c-2.43,0-4.4-1.37-6.31-2.7c-1.68-1.17-3.26-2.27-5.08-2.46
								c-1.04-0.11-2.11,0.1-3.24,0.32c-0.8,0.16-1.63,0.32-2.48,0.37c-0.48,0.02-0.87-0.3-0.9-0.74c-0.03-0.44,0.32-0.81,0.79-0.84
								c0.73-0.04,1.47-0.19,2.24-0.34c1.21-0.24,2.46-0.48,3.77-0.35c2.27,0.23,4.12,1.52,5.91,2.76c1.87,1.3,3.63,2.53,5.66,2.37
								c0.45-0.04,0.88,0.29,0.92,0.72c0.04,0.43-0.31,0.82-0.77,0.85C215.83,158.88,215.65,158.89,215.49,158.89z"/>
						</g>
					</g>
				</g>
				<g>
					<g>
						<g>
							<path class="st1" d="M221.53,171.79c-0.56,0-1.11-0.03-1.67-0.1c-2-0.25-3.86-0.95-5.66-1.62c-1.56-0.58-3.04-1.14-4.6-1.42
								c-1.18-0.22-2.47-0.29-3.71-0.35c-2.49-0.13-5.06-0.27-7.27-1.58c-0.39-0.23-0.51-0.72-0.26-1.09
								c0.25-0.37,0.78-0.48,1.17-0.24c1.83,1.09,4.08,1.21,6.46,1.33c1.3,0.07,2.64,0.14,3.94,0.38c1.71,0.32,3.34,0.92,4.9,1.51
								c1.78,0.67,3.47,1.3,5.26,1.52c1.81,0.23,3.67,0.02,5.37-0.6c0.43-0.16,0.93,0.04,1.1,0.45s-0.04,0.87-0.48,1.02
								C224.63,171.52,223.08,171.79,221.53,171.79z"/>
						</g>
					</g>
				</g>
				<g>
					<g>
						<g>
							<path class="st1" d="M234.43,183.88c-0.08,0-0.15-0.01-0.23-0.03c-5.34-1.39-10.84-2.41-16.34-3.03l-0.94-0.1
								c-3.36-0.37-6.83-0.75-9.83-2.37c-0.3-0.16-0.61-0.34-0.91-0.52c-1.19-0.69-2.3-1.35-3.44-1.19
								c-0.47,0.06-0.89-0.23-0.96-0.67c-0.07-0.43,0.25-0.83,0.71-0.9c1.74-0.24,3.25,0.64,4.58,1.42
								c0.29,0.17,0.58,0.34,0.86,0.49c2.7,1.46,5.99,1.82,9.18,2.16l0.95,0.1c5.59,0.63,11.17,1.67,16.59,3.08
								c0.45,0.12,0.71,0.55,0.59,0.97C235.14,183.66,234.8,183.88,234.43,183.88z"/>
						</g>
					</g>
				</g>
				<g>
					<g>
						<g>
							<path class="st1" d="M241.91,197.17c-0.38,0-0.72-0.23-0.82-0.59c-1.03-3.67-5.28-4.69-9.38-5.68
								c-1.04-0.25-2.02-0.49-2.94-0.76c-1.31-0.39-2.61-0.78-3.89-1.08c-3.97-0.92-8.2-1.03-12.23-0.33
								c-0.46,0.07-0.9-0.2-0.99-0.63c-0.09-0.43,0.22-0.84,0.68-0.92c4.26-0.74,8.74-0.62,12.95,0.35
								c1.34,0.31,2.67,0.71,3.95,1.09c0.93,0.28,1.88,0.51,2.9,0.75c4.36,1.05,9.31,2.24,10.59,6.81c0.12,0.42-0.15,0.85-0.6,0.97
								C242.06,197.17,241.98,197.17,241.91,197.17z"/>
						</g>
					</g>
				</g>
			</g>
			<g>
				<g>
					<g>
						<g>
							<ellipse class="st1" cx="299.67" cy="328.6" rx="42.28" ry="38.78"/>
						</g>
					</g>
					<g>
						<g>
							<path d="M299.67,373.31c-26.82,0-48.64-20.06-48.64-44.71c0-24.65,21.82-44.71,48.64-44.71s48.64,20.06,48.64,44.71
								C348.3,353.25,326.48,373.31,299.67,373.31z M299.67,295.75c-19.81,0-35.92,14.73-35.92,32.85
								c0,18.11,16.11,32.85,35.92,32.85c19.81,0,35.92-14.73,35.92-32.85C335.58,310.49,319.47,295.75,299.67,295.75z"/>
						</g>
					</g>
				</g>
				<g>
					<g>
						<g>
							<rect x="295.83" y="279.65" width="9.1" height="9.04"/>
						</g>
					</g>
					<g>
						<g>
							<path d="M306.62,290.27h-12.49v-12.21h12.49V290.27z M297.52,287.11h5.71v-5.88h-5.71V287.11z"/>
						</g>
					</g>
				</g>
				<g>
					<g>
						<g>
							<polygon points="323.22,294.63 314.87,291.05 318.47,282.75 326.82,286.33 							"/>
						</g>
					</g>
					<g>
						<g>
							<path d="M324.13,296.76l-11.44-4.9l4.87-11.24l11.44,4.9L324.13,296.76z M317.05,290.25l5.27,2.26l2.33-5.37l-5.27-2.26
								L317.05,290.25z"/>
						</g>
					</g>
				</g>
				<g>
					<g>
						<g>
							<polygon points="343.2,300 336.77,306.39 330.33,300 336.77,293.6 							"/>
						</g>
					</g>
					<g>
						<g>
							<path d="M336.77,308.7l-8.76-8.71l8.76-8.71l8.76,8.71L336.77,308.7z M332.66,300l4.11,4.08l4.11-4.08l-4.11-4.08L332.66,300
								z"/>
						</g>
					</g>
				</g>
				<g>
					<g>
						<g>
							<polygon points="353.35,319.3 344.64,321.91 342.02,313.25 350.73,310.64 							"/>
						</g>
					</g>
					<g>
						<g>
							<path d="M343.49,323.92l-3.55-11.71l11.94-3.58l3.55,11.71L343.49,323.92z M344.09,314.29l1.7,5.61l5.48-1.64l-1.7-5.61
								L344.09,314.29z"/>
						</g>
					</g>
				</g>
				<g>
					<g>
						<g>
							<polygon points="353.51,340.73 344.47,339.7 345.5,330.72 354.54,331.74 							"/>
						</g>
					</g>
					<g>
						<g>
							<path d="M355.01,342.49l-12.41-1.4l1.39-12.13l12.41,1.4L355.01,342.49z M346.33,338.32l5.67,0.64l0.67-5.84l-5.67-0.64
								L346.33,338.32z"/>
						</g>
					</g>
				</g>
				<g>
					<g>
						<g>
							<polygon points="343.99,360.07 336.38,355.11 341.38,347.55 348.98,352.52 							"/>
						</g>
					</g>
					<g>
						<g>
							<path d="M344.49,362.33l-10.39-6.78l6.78-10.26l10.39,6.78L344.49,362.33z M338.66,354.67l4.82,3.15l3.21-4.86l-4.82-3.15
								L338.66,354.67z"/>
						</g>
					</g>
				</g>
				<g>
					<g>
						<g>
							<polygon points="327.26,373.64 322.28,366.07 329.9,361.12 334.88,368.69 							"/>
						</g>
					</g>
					<g>
						<g>
							<path d="M326.76,375.9L320,365.62l10.4-6.76l6.76,10.27L326.76,375.9z M324.56,366.51l3.2,4.87l4.83-3.14l-3.2-4.87
								L324.56,366.51z"/>
						</g>
					</g>
				</g>
				<g>
					<g>
						<g>
							<polygon points="313.83,377.89 304.77,379.3 303.37,370.39 312.44,368.99 							"/>
						</g>
					</g>
					<g>
						<g>
							<path d="M303.34,381.12l-1.89-12.04l12.41-1.92l1.89,12.04L303.34,381.12z M305.29,371.7l0.91,5.77l5.72-0.89l-0.9-5.77
								L305.29,371.7z"/>
						</g>
					</g>
				</g>
				<g>
					<g>
						<g>
							<polygon points="290.62,378.23 281.7,376.1 283.82,367.34 292.74,369.47 							"/>
						</g>
					</g>
					<g>
						<g>
							<path d="M291.89,380.17l-12.21-2.91l2.86-11.85l12.21,2.91L291.89,380.17z M283.72,374.95l5.63,1.34l1.37-5.68l-5.64-1.34
								L283.72,374.95z"/>
						</g>
					</g>
				</g>
				<g>
					<g>
						<g>
							<polygon points="277.24,364.73 271.59,371.92 264.45,366.37 270.1,359.18 							"/>
						</g>
					</g>
					<g>
						<g>
							<path d="M271.89,374.21l-9.75-7.58l7.66-9.74l9.75,7.58L271.89,374.21z M266.76,366.11l4.53,3.52l3.64-4.63l-4.53-3.52
								L266.76,366.11z"/>
						</g>
					</g>
				</g>
				<g>
					<g>
						<g>
							<polygon points="264.35,353.6 256.4,358.17 251.87,350.36 259.81,345.8 							"/>
						</g>
					</g>
					<g>
						<g>
							<path d="M255.76,360.39l-6.15-10.59l10.84-6.22l6.15,10.59L255.76,360.39z M254.12,350.92l2.91,5.02l5.05-2.9l-2.91-5.02
								L254.12,350.92z"/>
						</g>
					</g>
				</g>
				<g>
					<g>
						<g>
							<polygon points="256.37,337.14 248.14,338.1 247.17,330.18 255.39,329.22 							"/>
						</g>
					</g>
					<g>
						<g>
							<path d="M246.65,339.87l-1.36-11.07l11.59-1.35l1.36,11.07L246.65,339.87z M249.04,331.55l0.59,4.78l4.86-0.57l-0.59-4.78
								L249.04,331.55z"/>
						</g>
					</g>
				</g>
				<g>
					<g>
						<g>
							<polygon points="256.43,322.9 247.75,319.95 250.68,311.42 259.36,314.37 							"/>
						</g>
					</g>
					<g>
						<g>
							<path d="M257.51,324.95l-11.87-4.03l3.96-11.54l11.87,4.03L257.51,324.95z M249.86,318.98l5.49,1.87l1.89-5.51l-5.49-1.87
								L249.86,318.98z"/>
						</g>
					</g>
				</g>
				<g>
					<g>
						<g>
							<polygon points="285.91,290.97 277.61,294.66 273.9,286.4 282.2,282.72 							"/>
						</g>
					</g>
					<g>
						<g>
							<path d="M276.73,296.8l-5.02-11.18l11.37-5.05l5.02,11.18L276.73,296.8z M276.09,287.18l2.4,5.34l5.24-2.33l-2.4-5.34
								L276.09,287.18z"/>
						</g>
					</g>
				</g>
				<g>
					<g>
						<g>
							<polygon points="270.42,300 263.98,306.39 257.55,300 263.98,293.6 							"/>
						</g>
					</g>
					<g>
						<g>
							<path d="M263.98,308.7l-8.76-8.71l8.76-8.71l8.76,8.71L263.98,308.7z M259.88,300l4.11,4.08l4.11-4.08l-4.11-4.08L259.88,300
								z"/>
						</g>
					</g>
				</g>
				<g>
					<g>
						<g>
							<ellipse class="st2" cx="205.3" cy="321.26" rx="34.66" ry="32.17"/>
						</g>
					</g>
					<g>
						<g>
							<path d="M205.3,357.39c-21.45,0-38.9-16.21-38.9-36.12c0-19.92,17.45-36.12,38.9-36.12s38.9,16.21,38.9,36.12
								C244.19,341.18,226.74,357.39,205.3,357.39z M205.3,293.05c-16.77,0-30.42,12.66-30.42,28.22s13.65,28.22,30.42,28.22
								s30.42-12.66,30.42-28.22S222.07,293.05,205.3,293.05z"/>
						</g>
					</g>
				</g>
				<g>
					<g>
						<g>
							<rect x="201.3" y="280.87" width="7.26" height="7.31"/>
						</g>
					</g>
					<g>
						<g>
							<path d="M210.26,289.76h-10.65v-10.48h10.65V289.76z M203,286.6h3.87v-4.15H203V286.6z"/>
						</g>
					</g>
				</g>
				<g>
					<g>
						<g>
							<polygon points="223.16,292.98 216.5,290.09 219.37,283.38 226.03,286.27 							"/>
						</g>
					</g>
					<g>
						<g>
							<path d="M224.07,295.12l-9.75-4.23l4.13-9.66l9.75,4.23L224.07,295.12z M218.66,289.29l3.59,1.56l1.61-3.77l-3.59-1.56
								L218.66,289.29z"/>
						</g>
					</g>
				</g>
				<g>
					<g>
						<g>
							<polygon points="239.1,297.32 233.97,302.49 228.83,297.32 233.97,292.15 							"/>
						</g>
					</g>
					<g>
						<g>
							<path d="M233.97,304.82l-7.44-7.5l7.44-7.5l7.44,7.5L233.97,304.82z M231.14,297.32l2.82,2.84l2.82-2.84l-2.82-2.84
								L231.14,297.32z"/>
						</g>
					</g>
				</g>
				<g>
					<g>
						<g>
							<polygon points="247.2,312.92 240.25,315.03 238.15,308.03 245.1,305.92 							"/>
						</g>
					</g>
					<g>
						<g>
							<path d="M239.09,317.05L236.08,307l10.18-3.09l3.01,10.05L239.09,317.05z M240.22,309.07l1.18,3.95l3.72-1.13l-1.18-3.95
								L240.22,309.07z"/>
						</g>
					</g>
				</g>
				<g>
					<g>
						<g>
							<polygon points="247.76,329.42 241.7,328.66 242.39,321.98 248.45,322.74 							"/>
						</g>
					</g>
					<g>
						<g>
							<path d="M249.28,331.21l-9.42-1.18l1.01-9.83l9.42,1.18L249.28,331.21z M243.55,327.3l2.69,0.34l0.36-3.53l-2.69-0.34
								L243.55,327.3z"/>
						</g>
					</g>
				</g>
				<g>
					<g>
						<g>
							<polygon points="239.72,345.88 233.66,341.87 237.64,335.76 243.71,339.77 							"/>
						</g>
					</g>
					<g>
						<g>
							<path d="M240.23,348.16l-8.84-5.85l5.75-8.82l8.84,5.85L240.23,348.16z M235.93,341.43l3.29,2.18l2.22-3.4l-3.29-2.18
								L235.93,341.43z"/>
						</g>
					</g>
				</g>
				<g>
					<g>
						<g>
							<polygon points="226.38,356.85 222.41,350.73 228.49,346.73 232.46,352.85 							"/>
						</g>
					</g>
					<g>
						<g>
							<path d="M225.87,359.12l-5.73-8.83l8.85-5.83l5.73,8.83L225.87,359.12z M224.68,351.17l2.21,3.41l3.3-2.17l-2.21-3.41
								L224.68,351.17z"/>
						</g>
					</g>
				</g>
				<g>
					<g>
						<g>
							<polygon points="206.85,361.57 206.34,354.51 213.78,353.33 214.29,360.39 							"/>
						</g>
					</g>
					<g>
						<g>
							<path d="M205.28,363.42l-0.73-10.23l10.8-1.72l0.73,10.23L205.28,363.42z M208.14,355.83l0.28,3.88l4.08-0.65l-0.28-3.88
								L208.14,355.83z"/>
						</g>
					</g>
				</g>
				<g>
					<g>
						<g>
							<polygon points="197.15,360.56 190.03,358.84 191.72,351.76 198.84,353.48 							"/>
						</g>
					</g>
					<g>
						<g>
							<path d="M198.43,362.5l-10.4-2.52l2.42-10.17l10.4,2.51L198.43,362.5z M192.05,357.69l3.83,0.93l0.95-3.99L193,353.7
								L192.05,357.69z"/>
						</g>
					</g>
				</g>
				<g>
					<g>
						<g>
							<polygon points="186.48,349.65 181.97,355.46 176.27,350.97 180.78,345.16 							"/>
						</g>
					</g>
					<g>
						<g>
							<path d="M182.27,357.77l-8.3-6.53l6.5-8.38l8.3,6.53L182.27,357.77z M178.57,350.71l3.1,2.44l2.51-3.24l-3.1-2.44
								L178.57,350.71z"/>
						</g>
					</g>
				</g>
				<g>
					<g>
						<g>
							<polygon points="176.19,340.65 169.85,344.34 166.23,338.03 172.57,334.35 							"/>
						</g>
					</g>
					<g>
						<g>
							<path d="M169.21,346.58l-5.22-9.11l9.22-5.36l5.22,9.1L169.21,346.58z M168.48,338.59l2.01,3.51l3.46-2.01l-2.01-3.51
								L168.48,338.59z"/>
						</g>
					</g>
				</g>
				<g>
					<g>
						<g>
							<polygon points="170.19,328.27 162.92,329.14 162.07,321.91 169.34,321.03 							"/>
						</g>
					</g>
					<g>
						<g>
							<path d="M161.43,330.91l-1.23-10.38l10.63-1.28l1.23,10.38L161.43,330.91z M163.94,323.28l0.48,4.09l3.9-0.47l-0.48-4.09
								L163.94,323.28z"/>
						</g>
					</g>
				</g>
				<g>
					<g>
						<g>
							<polygon points="169.88,315.83 162.95,313.45 165.29,306.56 172.21,308.94 							"/>
						</g>
					</g>
					<g>
						<g>
							<path d="M170.96,317.89l-10.11-3.48l3.36-9.91l10.11,3.48L170.96,317.89z M165.05,312.49l3.74,1.29l1.31-3.87l-3.74-1.29
								L165.05,312.49z"/>
						</g>
					</g>
				</g>
				<g>
					<g>
						<g>
							<polygon points="193.4,290.03 186.77,293.01 183.81,286.33 190.44,283.35 							"/>
						</g>
					</g>
					<g>
						<g>
							<path d="M185.89,295.16l-4.26-9.6l9.69-4.36l4.26,9.6L185.89,295.16z M185.99,287.11l1.66,3.75l3.57-1.6l-1.66-3.75
								L185.99,287.11z"/>
						</g>
					</g>
				</g>
				<g>
					<g>
						<g>
							<polygon points="181.03,297.32 175.9,302.49 170.77,297.32 175.9,292.15 							"/>
						</g>
					</g>
					<g>
						<g>
							<path d="M175.9,304.82l-7.44-7.5l7.44-7.5l7.44,7.5L175.9,304.82z M173.08,297.32l2.82,2.84l2.82-2.84l-2.82-2.84
								L173.08,297.32z"/>
						</g>
					</g>
				</g>
				<g>
					<g>
						<g>
							<path d="M205.11,333.46c-7.4,0-13.42-5.42-13.42-12.09s6.02-12.09,13.42-12.09c7.4,0,13.42,5.42,13.42,12.09
								S212.5,333.46,205.11,333.46z M205.11,315.6c-3.66,0-6.63,2.59-6.63,5.76s2.98,5.76,6.63,5.76s6.63-2.59,6.63-5.76
								S208.76,315.6,205.11,315.6z"/>
						</g>
					</g>
				</g>
				<g>
					<g>
						<g>
							<path d="M300.83,342.67c-7.25,0-13.14-5.76-13.14-12.83c0-7.07,5.9-12.83,13.14-12.83c7.25,0,13.14,5.76,13.14,12.83
								C313.97,336.92,308.08,342.67,300.83,342.67z M300.83,324.13c-3.04,0-5.51,2.56-5.51,5.71c0,3.15,2.47,5.71,5.51,5.71
								c3.04,0,5.51-2.56,5.51-5.71C306.34,326.69,303.87,324.13,300.83,324.13z"/>
						</g>
					</g>
				</g>
				<g>
					<g>
						<g>
							<path d="M300.37,315.98c-5.91,0-10.72-4.58-10.72-10.22c0-5.63,4.81-10.22,10.72-10.22c5.91,0,10.72,4.58,10.72,10.22
								C311.09,311.4,306.28,315.98,300.37,315.98z M300.37,297.92c-4.51,0-8.18,3.52-8.18,7.84s3.67,7.84,8.18,7.84
								c4.51,0,8.18-3.52,8.18-7.84S304.88,297.92,300.37,297.92z"/>
						</g>
					</g>
				</g>
				<g>
					<g>
						<g>
							<path d="M326.32,340.35c-6.33,0-11.49-4.9-11.49-10.92c0-6.02,5.15-10.92,11.49-10.92s11.49,4.9,11.49,10.92
								C337.81,335.45,332.66,340.35,326.32,340.35z M326.32,320.88c-4.93,0-8.94,3.84-8.94,8.55c0,4.72,4.01,8.55,8.94,8.55
								s8.94-3.84,8.94-8.55C335.27,324.71,331.26,320.88,326.32,320.88z"/>
						</g>
					</g>
				</g>
				<g>
					<g>
						<g>
							<path d="M300.75,363.82c-5.97,0-10.82-4.68-10.82-10.43s4.85-10.43,10.82-10.43c5.97,0,10.82,4.68,10.82,10.43
								S306.71,363.82,300.75,363.82z M300.75,345.33c-4.56,0-8.28,3.61-8.28,8.06s3.71,8.06,8.28,8.06c4.56,0,8.28-3.61,8.28-8.06
								S305.31,345.33,300.75,345.33z"/>
						</g>
					</g>
				</g>
				<g>
					<g>
						<g>
							<path d="M273.95,341.1c-6.14,0-11.13-4.79-11.13-10.68c0-5.89,4.99-10.69,11.13-10.69c6.14,0,11.13,4.79,11.13,10.69
								C285.09,336.3,280.09,341.1,273.95,341.1z M273.95,322.1c-4.74,0-8.59,3.73-8.59,8.31c0,4.58,3.85,8.31,8.59,8.31
								s8.59-3.73,8.59-8.31C282.54,325.83,278.69,322.1,273.95,322.1z"/>
						</g>
					</g>
				</g>
			</g>
		</g>
		<g>
			<g>
				<g>
					<path class="st1" d="M254.9,477.62v-55c100.91,0,183-79.18,183-176.5s-82.09-176.5-183-176.5v-55
						c63.41,0,123.07,23.97,167.98,67.5c45.15,43.76,70.02,102,70.02,164s-24.87,120.24-70.02,164
						C377.97,453.65,318.31,477.62,254.9,477.62z"/>
				</g>
			</g>
			<g>
				<g>
					<path class="st1" d="M254.9,477.62c-63.41,0-123.07-23.97-167.98-67.5c-45.15-43.76-70.02-102-70.02-164
						s24.87-120.24,70.02-164c44.92-43.53,104.58-67.5,167.98-67.5v55c-100.91,0-183,79.18-183,176.5s82.09,176.5,183,176.5V477.62z
						"/>
				</g>
			</g>
		</g>
	</g>
	<g>
		<rect x="251.4" y="423.62" class="st1" width="8" height="53.5"/>
		<path class="st1" d="M259.9,477.62h-9v-54.5h9V477.62z M251.9,476.62h7v-52.5h-7V476.62z"/>
	</g>
	<g>
		<rect x="252.4" y="15.62" class="st1" width="8" height="53.5"/>
		<path class="st1" d="M260.9,69.62h-9v-54.5h9V69.62z M252.9,68.62h7v-52.5h-7V68.62z"/>
	</g>
</g>
</svg>
