<?xml version="1.0" encoding="utf-8"?>
<!-- Generator: Adobe Illustrator 26.0.1, SVG Export Plug-In . SVG Version: 6.00 Build 0)  -->
<svg version="1.1" id="Lager_1" xmlns="http://www.w3.org/2000/svg" xmlns:xlink="http://www.w3.org/1999/xlink" x="0px" y="0px"
	 viewBox="0 0 932 894" style="enable-background:new 0 0 932 894;" xml:space="preserve">
<style type="text/css">
	.st0{fill:#2819FF;}
	.st1{fill:#FFCD32;}
	.st2{fill:#23C3FF;}
	.st3{fill:#FF5F0A;}
	.st4{fill:#FA1996;}
	.st5{fill:#00F0FF;}
	.st6{fill:#00F0AF;}
	.st7{fill:#00BE5F;}
</style>
<g>
	<rect x="22" y="460.17" class="st0" width="426.03" height="408.83"/>
	<rect x="133.77" y="568.69" class="st1" width="251.85" height="236.83"/>
	<ellipse class="st1" cx="108.37" cy="687.45" rx="44.27" ry="41.63"/>
	<ellipse class="st1" cx="259.33" cy="542.08" rx="44.27" ry="41.63"/>
	<ellipse class="st0" cx="353.68" cy="679.94" rx="44.27" ry="41.63"/>
	<ellipse class="st0" cx="260.06" cy="776.18" rx="44.27" ry="41.63"/>
	<rect x="479.97" y="460.17" class="st2" width="426.03" height="408.83"/>
	<rect x="591.74" y="568.69" class="st3" width="251.85" height="236.83"/>
	<ellipse class="st3" cx="566.33" cy="687.45" rx="44.27" ry="41.63"/>
	<ellipse class="st3" cx="717.3" cy="542.08" rx="44.27" ry="41.63"/>
	<ellipse class="st2" cx="811.65" cy="679.94" rx="44.27" ry="41.63"/>
	<ellipse class="st2" cx="718.02" cy="776.18" rx="44.27" ry="41.63"/>
	<rect x="22" y="22" class="st4" width="426.03" height="408.83"/>
	<rect x="133.77" y="130.52" class="st5" width="251.85" height="236.83"/>
	<ellipse class="st5" cx="108.37" cy="249.28" rx="44.27" ry="41.63"/>
	<ellipse class="st5" cx="259.33" cy="103.9" rx="44.27" ry="41.63"/>
	<ellipse class="st4" cx="353.68" cy="241.77" rx="44.27" ry="41.63"/>
	<ellipse class="st4" cx="260.06" cy="338" rx="44.27" ry="41.63"/>
	<rect x="479.97" y="22" class="st6" width="426.03" height="408.83"/>
	<rect x="591.74" y="130.52" class="st7" width="251.85" height="236.83"/>
	<ellipse class="st7" cx="566.33" cy="249.28" rx="44.27" ry="41.63"/>
	<ellipse class="st7" cx="717.3" cy="103.9" rx="44.27" ry="41.63"/>
	<ellipse class="st6" cx="811.65" cy="241.77" rx="44.27" ry="41.63"/>
	<ellipse class="st6" cx="718.02" cy="338" rx="44.27" ry="41.63"/>
</g>
</svg>
