<?xml version="1.0" encoding="utf-8"?>
<!-- Generator: Adobe Illustrator 26.0.1, SVG Export Plug-In . SVG Version: 6.00 Build 0)  -->
<svg version="1.1" id="Lager_1" focusable="false" xmlns="http://www.w3.org/2000/svg" xmlns:xlink="http://www.w3.org/1999/xlink"
	 x="0px" y="0px" viewBox="0 0 583 560" style="enable-background:new 0 0 583 560;" xml:space="preserve">
<style type="text/css">
	.st0{fill:#FFFDFD;}
</style>
<g>
	<g>
		<ellipse class="st0" cx="291.75" cy="279" rx="232.44" ry="223"/>
		<path d="M291.75,104c49.89,0,96.62,18.61,131.59,52.41c34.08,32.93,52.85,76.47,52.85,122.59s-18.77,89.66-52.85,122.59
			C388.37,435.39,341.64,454,291.75,454s-96.62-18.61-131.59-52.41c-34.08-32.93-52.85-76.47-52.85-122.59s18.77-89.66,52.85-122.59
			C195.13,122.61,241.86,104,291.75,104 M291.75,8C136.87,8,11.31,129.33,11.31,279s125.56,271,280.44,271s280.44-121.33,280.44-271
			S446.63,8,291.75,8L291.75,8z"/>
	</g>
	<path d="M260.65,233.52l79.58,45.65l-79.58,45.65V233.52z M479,130.5v297c0,22.36-17.97,40.5-40.12,40.5H144.62
		c-22.15,0-40.12-18.14-40.12-40.5v-297c0-22.36,17.97-40.5,40.12-40.5h294.25C461.03,90,479,108.14,479,130.5z M443.89,279.25
		c0,0,0-50.29-6.35-74.42c-3.51-13.33-13.79-23.79-26.92-27.34c-23.66-6.5-118.87-6.5-118.87-6.5s-95.21,0-118.87,6.5
		c-13.12,3.54-23.41,14.01-26.92,27.34c-6.35,24.05-6.35,74.42-6.35,74.42s0,50.29,6.35,74.42c3.51,13.33,13.79,23.37,26.92,26.92
		C196.54,387,291.75,387,291.75,387s95.21,0,118.87-6.5c13.12-3.54,23.41-13.58,26.92-26.92
		C443.89,329.54,443.89,279.25,443.89,279.25L443.89,279.25z"/>
</g>
</svg>
